<svg viewBox="0 0 330 200" xmlns="http://www.w3.org/2000/svg"><g><g><g><g><g><line x1="51.5625" y1="177" x2="46.5625" y2="177" style="visibility: inherit;" fill="rgb(0, 0, 0)" stroke="rgb(204, 204, 204)" stroke-width="1px"></line><line x1="51.5625" y1="160.9090909090909" x2="46.5625" y2="160.9090909090909" style="visibility: inherit;" fill="rgb(0, 0, 0)" stroke="rgb(204, 204, 204)" stroke-width="1px"></line><line x1="51.5625" y1="144.8181818181818" x2="46.5625" y2="144.8181818181818" style="visibility: inherit;" fill="rgb(0, 0, 0)" stroke="rgb(204, 204, 204)" stroke-width="1px"></line><line x1="51.5625" y1="128.72727272727272" x2="46.5625" y2="128.72727272727272" style="visibility: inherit;" fill="rgb(0, 0, 0)" stroke="rgb(204, 204, 204)" stroke-width="1px"></line><line x1="51.5625" y1="112.63636363636364" x2="46.5625" y2="112.63636363636364" style="visibility: inherit;" fill="rgb(0, 0, 0)" stroke="rgb(204, 204, 204)" stroke-width="1px"></line><line x1="51.5625" y1="96.54545454545453" x2="46.5625" y2="96.54545454545453" style="visibility: inherit;" fill="rgb(0, 0, 0)" stroke="rgb(204, 204, 204)" stroke-width="1px"></line><line x1="51.5625" y1="80.45454545454547" x2="46.5625" y2="80.45454545454547" style="visibility: inherit;" fill="rgb(0, 0, 0)" stroke="rgb(204, 204, 204)" stroke-width="1px"></line><line x1="51.5625" y1="64.36363636363639" x2="46.5625" y2="64.36363636363639" style="visibility: inherit;" fill="rgb(0, 0, 0)" stroke="rgb(204, 204, 204)" stroke-width="1px"></line><line x1="51.5625" y1="48.272727272727266" x2="46.5625" y2="48.272727272727266" style="visibility: inherit;" fill="rgb(0, 0, 0)" stroke="rgb(204, 204, 204)" stroke-width="1px"></line><line x1="51.5625" y1="32.181818181818194" x2="46.5625" y2="32.181818181818194" style="visibility: inherit;" fill="rgb(0, 0, 0)" stroke="rgb(204, 204, 204)" stroke-width="1px"></line><line x1="51.5625" y1="16.090909090909097" x2="46.5625" y2="16.090909090909097" style="visibility: inherit;" fill="rgb(0, 0, 0)" stroke="rgb(204, 204, 204)" stroke-width="1px"></line><line x1="51.5625" y1="0" x2="46.5625" y2="0" style="visibility: inherit;" fill="rgb(0, 0, 0)" stroke="rgb(204, 204, 204)" stroke-width="1px"></line></g><g transform="translate(41.5625, 0)"><text x="0" y="177" dx="0em" dy="0.3em" style="text-anchor: end; visibility: hidden; font-family: Roboto, sans-serif; font-size: 12px; font-weight: 200;" fill="rgb(255, 255, 255)" stroke="none" stroke-width="1px">0</text><text x="0" y="160.9090909090909" dx="0em" dy="0.3em" style="text-anchor: end; visibility: inherit; font-family: Roboto, sans-serif; font-size: 12px; font-weight: 200;" fill="rgb(255, 255, 255)" stroke="none" stroke-width="1px">0.05</text><text x="0" y="144.8181818181818" dx="0em" dy="0.3em" style="text-anchor: end; visibility: hidden; font-family: Roboto, sans-serif; font-size: 12px; font-weight: 200;" fill="rgb(255, 255, 255)" stroke="none" stroke-width="1px">0.1</text><text x="0" y="128.72727272727272" dx="0em" dy="0.3em" style="text-anchor: end; visibility: inherit; font-family: Roboto, sans-serif; font-size: 12px; font-weight: 200;" fill="rgb(255, 255, 255)" stroke="none" stroke-width="1px">0.15</text><text x="0" y="112.63636363636364" dx="0em" dy="0.3em" style="text-anchor: end; visibility: hidden; font-family: Roboto, sans-serif; font-size: 12px; font-weight: 200;" fill="rgb(255, 255, 255)" stroke="none" stroke-width="1px">0.2</text><text x="0" y="96.54545454545453" dx="0em" dy="0.3em" style="text-anchor: end; visibility: inherit; font-family: Roboto, sans-serif; font-size: 12px; font-weight: 200;" fill="rgb(255, 255, 255)" stroke="none" stroke-width="1px">0.25</text><text x="0" y="80.45454545454547" dx="0em" dy="0.3em" style="text-anchor: end; visibility: hidden; font-family: Roboto, sans-serif; font-size: 12px; font-weight: 200;" fill="rgb(255, 255, 255)" stroke="none" stroke-width="1px">0.3</text><text x="0" y="64.36363636363639" dx="0em" dy="0.3em" style="text-anchor: end; visibility: inherit; font-family: Roboto, sans-serif; font-size: 12px; font-weight: 200;" fill="rgb(255, 255, 255)" stroke="none" stroke-width="1px">0.35</text><text x="0" y="48.272727272727266" dx="0em" dy="0.3em" style="text-anchor: end; visibility: hidden; font-family: Roboto, sans-serif; font-size: 12px; font-weight: 200;" fill="rgb(255, 255, 255)" stroke="none" stroke-width="1px">0.4</text><text x="0" y="32.181818181818194" dx="0em" dy="0.3em" style="text-anchor: end; visibility: inherit; font-family: Roboto, sans-serif; font-size: 12px; font-weight: 200;" fill="rgb(255, 255, 255)" stroke="none" stroke-width="1px">0.45</text><text x="0" y="16.090909090909097" dx="0em" dy="0.3em" style="text-anchor: end; visibility: hidden; font-family: Roboto, sans-serif; font-size: 12px; font-weight: 200;" fill="rgb(255, 255, 255)" stroke="none" stroke-width="1px">0.5</text><text x="0" y="0" dx="0em" dy="0.3em" style="text-anchor: end; visibility: hidden; font-family: Roboto, sans-serif; font-size: 12px; font-weight: 200;" fill="rgb(255, 255, 255)" stroke="none" stroke-width="1px">0.55</text></g><line x1="51.5625" y1="0" x2="51.5625" y2="177" fill="rgb(0, 0, 0)" stroke="rgb(204, 204, 204)" stroke-width="1px"></line></g></g><g transform="translate(51, 0)" clip-path="url(#clip_0)"><clipPath id="clip_0"><rect width="278" height="177"></rect></clipPath><g><g><g><line x1="0" y1="0" x2="0" y2="177" fill="rgb(0, 0, 0)" stroke="rgb(189, 189, 189)" stroke-width="1px" opacity="0.25"></line><line x1="21.418269230769234" y1="0" x2="21.418269230769234" y2="177" fill="rgb(0, 0, 0)" stroke="rgb(189, 189, 189)" stroke-width="1px" opacity="0.25"></line><line x1="42.83653846153847" y1="0" x2="42.83653846153847" y2="177" fill="rgb(0, 0, 0)" stroke="rgb(189, 189, 189)" stroke-width="1px" opacity="0.25"></line><line x1="64.2548076923077" y1="0" x2="64.2548076923077" y2="177" fill="rgb(0, 0, 0)" stroke="rgb(189, 189, 189)" stroke-width="1px" opacity="0.25"></line><line x1="85.67307692307693" y1="0" x2="85.67307692307693" y2="177" fill="rgb(0, 0, 0)" stroke="rgb(189, 189, 189)" stroke-width="1px" opacity="0.25"></line><line x1="107.09134615384616" y1="0" x2="107.09134615384616" y2="177" fill="rgb(0, 0, 0)" stroke="rgb(189, 189, 189)" stroke-width="1px" opacity="0.25"></line><line x1="128.5096153846154" y1="0" x2="128.5096153846154" y2="177" fill="rgb(0, 0, 0)" stroke="rgb(189, 189, 189)" stroke-width="1px" opacity="0.25"></line><line x1="149.9278846153846" y1="0" x2="149.9278846153846" y2="177" fill="rgb(0, 0, 0)" stroke="rgb(189, 189, 189)" stroke-width="1px" opacity="0.25"></line><line x1="171.34615384615387" y1="0" x2="171.34615384615387" y2="177" fill="rgb(0, 0, 0)" stroke="rgb(189, 189, 189)" stroke-width="1px" opacity="0.25"></line><line x1="192.76442307692307" y1="0" x2="192.76442307692307" y2="177" fill="rgb(0, 0, 0)" stroke="rgb(189, 189, 189)" stroke-width="1px" opacity="0.25"></line><line x1="214.18269230769232" y1="0" x2="214.18269230769232" y2="177" fill="rgb(0, 0, 0)" stroke="rgb(189, 189, 189)" stroke-width="1px" opacity="0.25"></line><line x1="235.60096153846155" y1="0" x2="235.60096153846155" y2="177" fill="rgb(0, 0, 0)" stroke="rgb(189, 189, 189)" stroke-width="1px" opacity="0.25"></line><line x1="257.0192307692308" y1="0" x2="257.0192307692308" y2="177" fill="rgb(0, 0, 0)" stroke="rgb(189, 189, 189)" stroke-width="1px" opacity="0.25"></line><line x1="278.4375" y1="0" x2="278.4375" y2="177" fill="rgb(0, 0, 0)" stroke="rgb(189, 189, 189)" stroke-width="1px" opacity="0.25"></line></g><g><line x1="0" y1="177" x2="278.4375" y2="177" fill="rgb(0, 0, 0)" stroke="rgb(189, 189, 189)" stroke-width="1px" opacity="0.25"></line><line x1="0" y1="160.9090909090909" x2="278.4375" y2="160.9090909090909" fill="rgb(0, 0, 0)" stroke="rgb(189, 189, 189)" stroke-width="1px" opacity="0.25"></line><line x1="0" y1="144.8181818181818" x2="278.4375" y2="144.8181818181818" fill="rgb(0, 0, 0)" stroke="rgb(189, 189, 189)" stroke-width="1px" opacity="0.25"></line><line x1="0" y1="128.72727272727272" x2="278.4375" y2="128.72727272727272" fill="rgb(0, 0, 0)" stroke="rgb(189, 189, 189)" stroke-width="1px" opacity="0.25"></line><line x1="0" y1="112.63636363636364" x2="278.4375" y2="112.63636363636364" fill="rgb(0, 0, 0)" stroke="rgb(189, 189, 189)" stroke-width="1px" opacity="0.25"></line><line x1="0" y1="96.54545454545453" x2="278.4375" y2="96.54545454545453" fill="rgb(0, 0, 0)" stroke="rgb(189, 189, 189)" stroke-width="1px" opacity="0.25"></line><line x1="0" y1="80.45454545454547" x2="278.4375" y2="80.45454545454547" fill="rgb(0, 0, 0)" stroke="rgb(189, 189, 189)" stroke-width="1px" opacity="0.25"></line><line x1="0" y1="64.36363636363639" x2="278.4375" y2="64.36363636363639" fill="rgb(0, 0, 0)" stroke="rgb(189, 189, 189)" stroke-width="1px" opacity="0.25"></line><line x1="0" y1="48.272727272727266" x2="278.4375" y2="48.272727272727266" fill="rgb(0, 0, 0)" stroke="rgb(189, 189, 189)" stroke-width="1px" opacity="0.25"></line><line x1="0" y1="32.181818181818194" x2="278.4375" y2="32.181818181818194" fill="rgb(0, 0, 0)" stroke="rgb(189, 189, 189)" stroke-width="1px" opacity="0.25"></line><line x1="0" y1="16.090909090909097" x2="278.4375" y2="16.090909090909097" fill="rgb(0, 0, 0)" stroke="rgb(189, 189, 189)" stroke-width="1px" opacity="0.25"></line><line x1="0" y1="0" x2="278.4375" y2="0" fill="rgb(0, 0, 0)" stroke="rgb(189, 189, 189)" stroke-width="1px" opacity="0.25"></line></g></g></g><g><g><line x1="0" y1="177" x2="278.4375" y2="177" fill="rgb(0, 0, 0)" stroke="rgb(153, 153, 153)" stroke-width="1.5px"></line></g></g><g><g><line x1="0" y1="0" x2="0" y2="177" fill="rgb(0, 0, 0)" stroke="rgb(153, 153, 153)" stroke-width="1.5px"></line></g></g><g><g><g><g><g><path stroke="rgb(255, 112, 67)" stroke-width="2px" d="M6.446899038461538,15.858923695304194L6.678216346153846,15.824618971032674L6.8495625,21.404005889702905L6.999490384615385,22.594530975115205L7.170836538461539,32.76722800352989L7.320764423076922,34.481751167111824L7.530663461538461,37.78759207527118L7.757697115384616,47.02319551293208L7.937610576923077,55.7448442444283L8.066120192307691,64.7992903564402L8.228899038461538,69.19599064542987L8.421663461538461,72.61470938424713L8.6315625,79.56300804626872L8.815759615384616,84.36612223839626L9.00852403846154,89.35880224889937L9.171302884615386,93.68521263310062L9.34264903846154,97.11223580208858L9.569682692307692,98.44946326588573L9.749596153846154,101.22664251051962L9.908091346153846,103.8170987347192L10.096572115384616,105.55233085614255L10.310754807692307,107.99164917301786L10.563490384615385,109.76373464714217L10.730552884615383,110.38679829858314L10.93616826923077,111.58086363147112L11.17176923076923,112.42557556761592L11.471625,114.2954001806506L11.66010576923077,115.7066334720162L11.8614375,116.6715280819874L12.04135096153846,117.28876470002848L12.255533653846154,118.7604859530183L12.414028846153846,119.88396580908467L12.671048076923077,121.1372564454718L12.902365384615385,121.87318010345031L13.090846153846154,123.1042166726932L13.262192307692308,123.84903708638706L13.467807692307693,124.87990213654716L13.65628846153846,125.89097044253792L13.900456730769232,126.60281927464347L14.118923076923076,126.37624252063874L14.375942307692307,127.27089853837634L14.560139423076924,127.93325578793153L14.714350961538463,128.68502113514424L14.90283173076923,129.4592836403287L15.07846153846154,130.24955190892786L15.284076923076922,131.05567698281928L15.45970673076923,131.596067151962L15.631052884615386,132.27354365727456L15.823817307692309,133.08499993526715L15.990879807692307,133.61901426376224L16.222197115384617,134.2952327227424L16.40639423076923,134.66941588175237L16.58630769230769,135.19480096632392L16.809057692307693,135.4751997272006L16.988971153846155,135.78993464960388L17.190302884615384,136.30523593795567L17.370216346153846,136.50929403503406L17.64008653846154,137.12678428852558L17.832850961538462,137.60435156661362L18.034182692307695,138.04529541262903L18.205528846153847,138.45378360640626L18.389725961538463,138.53481816912543L18.582490384615383,138.97133355811613L18.796673076923078,139.16614924781197L18.959451923076923,139.65046375077347L19.182201923076924,140.03190134472467L19.42208653846154,140.33741037155306L19.666254807692308,140.6218206868141L19.914706730769232,140.56514912348118L20.158875000000002,140.71750699529784L20.381625,140.98259425740412L20.540120192307693,141.08786997217086L20.801423076923076,141.43279008700068L21.04559134615385,141.65748713003717L21.25120673076923,142.04492723942238L21.469673076923076,142.07493483202964L21.692423076923074,142.08735133675012L21.932307692307692,141.98677022107944L22.129355769230767,142.2524114247723L22.3306875,142.50775485152923L22.557721153846153,142.84254265601183L22.793322115384616,143.01970758171598L23.003221153846155,143.01551432340736L23.20883653846154,143.31382923865462L23.427302884615383,143.36950097755422L23.615783653846155,143.66706666172703L23.851384615384614,143.64480277921166L24.02273076923077,143.94072909474914L24.23691346153846,143.57615661312718L24.429677884615387,143.7412587188796L24.648144230769233,143.78880927806787L24.862326923076925,143.92346922484325L25.076509615384612,144.14882758836893L25.47060576923077,144.25540572087826L25.65051923076923,144.33282143611427L25.88183653846154,144.38196042737553L26.185975961538464,144.6760981925261L26.357322115384616,144.84585508037017L26.5629375,145.1091124839803L26.77712019230769,145.25176060179254L27.04270673076923,145.51446548849728L27.256889423076924,145.69690630149893L27.47963942307692,145.88157854653483L27.71952403846154,145.99483959714746L27.929423076923076,146.13768484124432L28.199293269230772,146.36000539841456L28.486298076923077,146.40119785818527L28.721899038461537,146.3871418672569L28.910379807692305,146.62209833040248L29.038889423076924,146.86900426984514L29.291625,147.12435661274012L29.527225961538463,147.2613078144445L29.79709615384615,147.33249091867046L30.058399038461538,147.54362828083444L30.255447115384616,147.71723012841338L30.443927884615384,147.83454787722206L30.713798076923077,147.91321171321044L30.945115384615384,147.97768465441462L31.185000000000002,148.0437466414507L31.390615384615383,147.9408958369686L31.737591346153845,148.15377352357618L32.06314903846154,148.291396609005L32.363004807692306,148.44265230287718L32.63715865384615,148.55004523973193L32.864192307692306,148.74541842312456L33.08265865384615,148.7500099916058L33.47675480769231,148.9365128081963L33.609548076923076,149.02543306172527L33.935105769230766,149.10043825949558L34.17070673076923,149.135408411479L34.33776923076923,149.33352688878608L34.6290576923077,149.4360687747547L34.89036057692308,149.54360598294357L35.25447115384615,149.6394359506383L35.520057692307695,149.7251620373934L35.785644230769236,149.86337023563183L36.13690384615385,149.9110860429488L36.37678846153847,150.0073611510582L36.52243269230769,150.05286880209417L36.668076923076924,150.18102881008429L36.916528846153845,150.16789900861605L37.07930769230769,150.1982090851508L37.20353365384615,150.16428088638537L37.507673076923076,150.30738531125263L37.74327403846154,150.25760873506772L38.01314423076923,150.43921412648436L38.334418269230774,150.39043260819346L38.56145192307692,150.41349744751918L38.76278365384615,150.4235903582539L38.985533653846154,150.5630474262317L39.18258173076923,150.68971813658075L39.41389903846154,150.7745159091723L39.59809615384615,150.93506284251768L39.88510096153846,151.05554810757016L40.16782211538462,151.02562752389727L40.33916826923077,151.02915875717713L40.69899519230769,151.01508245946073L40.93459615384615,151.08833242161072L41.24301923076923,151.01788625990037L41.49147115384615,151.15919775166336L41.722788461538464,151.3113254783206L41.894134615384615,151.2593636437101L42.27537980769231,151.3841821668262L42.49384615384616,151.3372016214638L42.703745192307686,151.4850285046047L42.90079326923077,151.47512741207214L43.06785576923077,151.14249699962105L43.27775480769231,150.980794778297L43.45766826923077,150.8960231865195L43.66328365384615,150.84011833482217L43.98884134615385,150.7685831682151L44.228725961538466,150.50948670469091L44.468610576923076,150.54481766703213L44.699927884615384,150.52793812176043L44.94837980769231,150.6427066708647L45.269653846153844,150.78368600202808L45.51382211538461,150.75762743002727L45.775124999999996,150.729223602481L46.036427884615385,150.7954310797557L46.23347596153846,150.79359699861502L46.46050961538461,150.66432742153677L46.70039423076923,150.5710474478564L46.8974423076923,150.56730910709842L47.124475961538465,150.62314666998543L47.48001923076923,150.66372083844863L47.7241875,150.71102658037313L48.114000000000004,150.80442804194746L48.452408653846156,150.71074899010512L48.777966346153846,150.70266308854733L48.97501442307692,150.68026650449067L49.266302884615385,150.6610188989118L49.44621634615385,150.74235090755786L49.70751923076923,150.8536131361993L50.007375,150.95098858299647L50.337216346153845,151.0409130775595L50.65849038461539,151.15027017991747L50.915509615384615,151.25128700845352L51.19394711538462,151.25883116956476L51.46810096153846,151.3146741090421L51.72940384615384,151.39823511472784L51.986423076923074,151.49462315280488L52.269144230769236,151.34455357256076L52.594701923076926,151.25720461818787L52.94167788461538,151.34861455202687L53.20298076923077,151.45986424561178L53.657048076923076,151.50603633603006L53.98260576923077,151.59835425114392L54.235341346153845,151.6521893785563L54.45809134615384,151.65130933021183L54.65513942307692,151.76031455858052L54.920725961538466,151.6659192935722L55.28483653846154,151.6317498658805L55.64466346153846,151.638538799283L55.95737019230769,151.63338300939276L56.28292788461539,151.64212854506548L56.544230769230765,151.75619960664133L56.895490384615385,151.82302767053622L57.14394230769231,151.93489059871928L57.5166201923077,151.83420806351262L57.893581730769235,151.93294246662035L58.326230769230776,151.89722804915402L58.694624999999995,151.95872971941452L59.041600961538464,151.98511895952592L59.40571153846154,151.97232075655177L59.75697115384616,151.98591667948506L59.96687019230769,152.02037072425836L60.18105288461538,152.04618631932195L60.47234134615385,152.13585508663238L60.772197115384614,152.1450064088018L61.033500000000004,152.22464231984765L61.32050480769231,152.25236427928192L61.70175,152.2299932119828L62.07442788461538,152.2229651681465L62.352865384615384,152.28262315271064L62.63558653846154,152.36560864537287L63.029682692307695,152.4268571964962L63.32525480769231,152.41416053985682L63.612259615384616,152.51060701409654L64.040625,152.54465896873464L64.3276298076923,152.51708242283732L64.54609615384615,152.59567160149646L64.89307211538461,152.5361956666467L65.16722596153846,152.52280419138046L65.54847115384615,152.59809766889322L65.83975961538462,152.63261284497005L66.11819711538462,152.65723187781612L66.44803846153846,152.74070700477105L66.79501442307692,152.73210542019967L67.17197596153846,152.83259027456575L67.49753365384615,152.91155937479684L67.77597115384616,152.94795173940153L68.1058125,152.89048863443222L68.38425000000001,152.83200514568063L68.69267307692307,152.88118284225683L68.84688461538461,152.90793649267465L69.08676923076924,152.9612623354495L69.35663942307693,153.01420252731285L69.59224038461538,153.01562535429554L69.89637980769231,153.05826515504188L70.26049038461538,153.0561995195264L70.57748076923077,153.11897206825955L70.96300961538462,153.1289096829368L71.38709134615384,153.02360000457656L71.62697596153846,153.07672997099738L71.89684615384616,153.11351479891442L72.28665865384616,153.16279046174702L72.68075480769231,153.20150670414705L72.87780288461538,153.26092915797093L73.1262548076923,153.20982526283436L73.51606730769231,153.25116088165313L73.68741346153847,153.29119373874767L74.08579326923078,153.3437872754747L74.36851442307692,153.37111742339658L74.69407211538461,153.40772365465745L74.95965865384616,153.3944096997439L75.27664903846154,153.46360799704982L75.55508653846154,153.52608223951702L75.85922596153846,153.6000040716458L76.12481249999999,153.61099256328433L76.36898076923077,153.66618139998644L76.54889423076924,153.6415246253876L76.84875000000001,153.69434588159075L77.05008173076922,153.63874539109324L77.24284615384616,153.64402743395544L77.5255673076923,153.6837582021174L78.02247115384614,153.71532727371698L78.53222596153846,153.68981666585972L78.67358653846154,153.71866616075962L78.86206730769231,153.7040028898794L79.14478846153847,153.76780779025626L79.51318269230768,153.81802190172934L80.11289423076923,153.85063999821483L80.5155576923077,153.84284455224943L80.80256250000001,153.83519874058442L81.0338798076923,153.85081946911635L81.37657211538462,153.93236987388144L81.64215865384615,153.95061709749882L81.97628365384615,153.9713727803442L82.22045192307692,153.9927544335017L82.59741346153847,154.05524412772323L83.01721153846154,154.12036723484294L83.23996153846154,154.11016273547332L83.55695192307692,154.17838044570217L83.82253846153846,154.1448931118947L84.09240865384616,154.19887494618175L84.43510096153845,154.2185631387731L84.68355288461538,154.25902845297503L84.92343749999999,154.27265038545482L85.16332211538462,154.33077291180882L85.42890865384615,154.27103393977234L85.73733173076923,154.25563065419345L85.9729326923077,154.09399893530457L86.23423557692307,153.99133443821447L86.50410576923076,154.04119686262604L86.71828846153846,154.0726105970757L87.22375961538462,154.10437360114165L87.4850625,154.1064617109683L87.90914423076923,154.16025341416207L88.29895673076922,154.2114663493514L88.65021634615384,154.1380782670025L89.05716346153847,154.10313273283373L89.69114423076923,154.11235823806587L89.96529807692308,154.15938827344183L90.42364903846155,154.155576267689L90.91198557692309,154.20605183475058L91.1604375,154.2474936794004L91.80298557692308,154.2449116216644L92.42411538461538,154.22113903687546L92.77109134615384,154.291854229902L93.03667788461539,154.28031207129968L93.67494230769232,154.30006056026008L94.0090673076923,154.31618947778358L94.35175961538461,154.31797476071654L94.61734615384616,154.31357668627774L94.93005288461538,154.36518276439583L95.68397596153845,154.3876336930967L96.04380288461539,154.430506311989L96.60496153846154,154.47891422371862L97.17040384615385,154.50294463203755L97.5816346153846,154.4533533411703L98.01856730769232,154.3540900137788L98.46406730769232,154.32659174003982L98.81961057692308,154.3829306376203L99.15801923076923,154.44002257799855L99.44502403846154,154.370790749979L99.82626923076924,154.41125991648923L100.30603846153845,154.46219270690779L101.01712500000001,154.48417064341373L101.31269711538461,154.42930629404344L102.01521634615384,154.46462825606523L102.87623076923077,154.52010584444534L103.13753365384615,154.47976252777886L103.88288942307692,154.44462314368238L104.32410576923077,154.46495439187672L104.7953076923077,154.45948899149536L105.16370192307693,154.49661004091092L105.51067788461539,154.53279622730022L105.90477403846154,154.58832545698877L106.30743749999999,154.6154154124013L106.51733653846154,154.63788537189254L107.0956298076923,154.61456767360417L107.63537019230769,154.66453978060846L107.98234615384615,154.67967778405068L108.34645673076922,154.72587688615548L108.96330288461537,154.74377526339933L109.37453365384616,154.74449675096974L109.80718269230769,154.7736872208865L110.14130769230769,154.80305123217528L110.48828365384615,154.7220909204749L111.04515865384616,154.70452144601222L111.486375,154.67010171636537L111.87190384615386,154.67386202503852L112.19317788461538,154.69037134258093L112.63867788461538,154.70415633102675L113.00707211538462,154.73368192910175L113.82525,154.77960504041863L114.43352884615385,154.7386094927347L114.78907211538461,154.7761477682926L115.35879807692308,154.74697601768807L115.53871153846154,154.69122167209343L116.03561538461538,154.56770997294L116.74241826923078,154.57818357014253L117.12366346153846,154.58561938588787L117.68910576923076,154.6152339706909L117.97182692307693,154.61371107377371L118.36592307692307,154.6472297654647L118.76858653846155,154.67689736392563L119.23122115384615,154.67545362855296L119.72384134615385,154.61057986856974L120.19932692307692,154.66248210183633L120.619125,154.6952924279431L121.14601442307692,154.6843496136741L121.47157211538462,154.68741929003568L121.84425,154.73532651380398L122.3368701923077,154.76856550891225L122.70098076923077,154.74510741135055L123.2364375,154.79652998391927L123.74619230769231,154.84592437601503L124.1745576923077,154.8369334061429L124.59007211538461,154.88325597726106L125.22405288461539,154.91385146690254L125.63528365384616,154.91105164695526L125.99082692307692,154.85454942943602L126.29925,154.7876695425704L126.80900480769232,154.82708717836096L127.28020673076922,154.8365505458773L127.62289903846154,154.88733119439706L127.87563461538461,154.8913769724126L128.18405769230768,154.87456741745055L128.70666346153845,154.27306505118875L128.93798076923076,154.0467714544429L129.22926923076923,154.0097400082749L129.86325,153.96309217421393L130.3558701923077,154.01095656970818L131.33254326923077,154.00332397853498L132.2106923076923,154.03613555993047L132.69046153846153,154.062309028717L133.12311057692307,153.98913597005907L133.78707692307694,153.92272755605194L134.3482355769231,153.93379580000746L134.9950673076923,153.7629856620097L135.58621153846155,153.8130340787859L135.86893269230768,153.8196670203528L136.83703846153847,153.76227826655622L137.62951442307693,153.74690498156787L138.73469711538462,153.76786210317798L139.40723076923078,153.77222609694485L139.76705769230767,153.73816460166728L140.34535096153846,153.7184604250723L141.47623557692307,153.70870247466092L142.2729951923077,153.6113467460312L142.67565865384614,153.59341539332013L143.4038798076923,153.4902693896012L143.9521875,153.50223520211634L144.6675576923077,153.48238144842313L145.78559134615386,153.50171835083916L146.5138125,153.54648732437252L147.9231346153846,153.4974199289767L148.3772019230769,153.4845144326837L149.23821634615385,153.39913842431946L149.75653846153847,153.45227816256858L150.22774038461537,153.46776314384954L151.74843750000002,153.50088805098977L152.8065,153.54937063073024L153.8645625,153.5939946799025L154.21582211538464,153.6070031561715L155.1924951923077,153.5663893571483L155.86502884615385,153.60490059151783L156.704625,153.6389917173291L158.16106730769232,153.64749964344577L158.5037596153846,153.66173675858644L159.46329807692308,153.67174166985788L159.93878365384617,153.67511649847043L160.4571057692308,153.64990156425029L161.03968269230768,153.67847492161104L162.29907692307694,153.62319389387386L162.78741346153845,153.6646100808725L163.45566346153848,153.61757882943996L164.15389903846156,153.5488211145392L164.9378076923077,153.5290708192889L165.5503701923077,153.53821313628183L166.1329471153846,153.5568946827876L166.89972115384614,153.55128882763893L167.86782692307693,153.57852730354674L168.87448557692306,153.5872886650904L169.26429807692307,153.58732883955506L169.7440673076923,153.62878816134202L170.54939423076922,153.59163038332372L171.18765865384617,153.5584504335622L171.88589423076925,153.5086703769507L172.8068798076923,153.49474802150255L174.079125,153.50498392596162L174.8287644230769,153.4794499836655L175.415625,153.44202271564478L175.71548076923077,153.44664419864012L176.5379423076923,153.4146401645428L177.11195192307693,153.4511234098641L179.28376442307692,153.4913978322058L179.92202884615384,153.49917834350038L181.12145192307693,153.51875694156416L182.18379807692307,153.5674563002096L183.0448125,153.5799557131822L183.4817451923077,153.5554682556342L183.880125,153.46645374450125L184.75827403846154,153.46458201553975L185.91486057692308,153.39521253442177L187.03717788461537,153.40186831573308L187.92817788461537,153.42411895574278L188.48505288461538,153.45859342305857L189.18757211538463,153.3922888171864L190.117125,153.15713878829806L191.0252596153846,153.12283439913924L192.45600000000002,153.08534860773835L193.37698557692306,153.1204684746058L194.5335721153846,153.11661482240888L196.26845192307692,153.02669136031068L196.9666875,153.00642755534486L197.56639903846155,152.97286974971144L198.51308653846155,153.00957433047654L199.39980288461538,153.02917798483693L201.44310576923078,152.9916496671263L203.6577548076923,153.03564643758463L204.28316826923077,153.0178049533005L205.62395192307693,152.95225943887007L206.2836346153846,152.99840499062788L207.1403653846154,153.0038673075188L207.71009134615383,153.01270231518984L209.94615865384617,152.9120948747571L210.67866346153846,152.93888463318254L211.90378846153845,152.88865863201508L213.0518076923077,152.84017416057847L214.36260576923078,152.73562173389573L215.0180048076923,152.67258185321535L215.70767307692307,152.59000139380913L216.71433173076923,152.56998843617578L217.81951442307692,152.45883751452982L218.8604423076923,152.44136369323152L220.0427307692308,152.44963805463692L220.48823076923077,152.4281759851734L221.51202403846153,152.45650092458985L222.55723557692306,152.3675696473375L222.91277884615383,152.3586695345827L224.25784615384617,152.3375709391724L225.33304326923079,152.3663914848687L226.04841346153847,152.36310621557442L227.13217788461537,152.1815100683916L227.65478365384615,152.13790328784768L227.95035576923078,152.1505775939513L228.53721634615383,152.1562726838638L229.17976442307693,152.15890759686815L230.20784134615383,152.02711731300272L231.17166346153846,151.92707262846332L231.9555721153846,151.90789984299397L232.52101442307693,151.92563139609325L233.04790384615387,151.9176154774807L233.553375,151.94252787613726L234.61572115384615,151.9255045702117L235.60952884615386,151.93630451226636L236.54764903846151,151.7702933710761L237.3872451923077,151.7713410779876L239.1949471153846,151.70515819270025L240.5871346153846,151.6548837116479L241.82511057692307,151.6230550002353L242.78464903846154,151.59870942706118L243.5300048076923,151.56840690023256L244.17683653846154,151.6043720022565L245.18777884615386,151.53569635277705L247.0083317307692,151.55375750054858L248.23774038461536,151.51820771299813L249.02164903846153,151.52011066923407L249.76272115384617,151.47957439703035L250.09684615384617,151.44290375616856L251.45048076923078,151.389059758493L252.34148076923077,151.362980506669L252.97546153846153,151.33676110689794L253.85789423076923,151.37378114303635L254.6760721153846,151.34949090249472L255.72556730769233,151.32370680614227L256.5822980769231,151.33362177171162" style="fill: none;" fill="none"></path></g></g></g></g><g opacity="0.2"><g><g><g><path stroke="rgb(255, 112, 67)" stroke-width="2px" d="M6.446899038461538,15.858923695304194L6.678216346153846,15.790348551490107L6.8495625,32.54604714567012L6.999490384615385,26.15896784175528L7.170836538461539,73.35639082301746L7.320764423076922,43.02868340232156L7.530663461538461,57.55333045395939L7.757697115384616,111.41433922810987L7.937610576923077,125.20478626272894L8.066120192307691,145.88293992389333L8.228899038461538,112.92189902609046L8.421663461538461,109.99573050303891L8.6315625,162.40260694921017L8.815759615384616,146.37126687981865L9.00852403846154,158.73435586419973L9.171302884615386,158.06461408463392L9.34264903846154,151.4808535955169L9.569682692307692,120.97882144559513L9.749596153846154,150.74365161765706L9.908091346153846,152.546520921317L10.096572115384616,139.8948720476844L10.310754807692307,158.65759006684476L10.563490384615385,148.30440018393776L10.730552884615383,124.54655120047657L10.93616826923077,139.88294332948598L11.17176923076923,133.27102626995608L11.471625,162.25996825234458L11.66010576923077,153.28108059818095L11.8614375,143.30033287135038L12.04135096153846,134.92261784726924L12.255533653846154,162.23434248837557L12.414028846153846,154.16012762351468L12.671048076923077,160.58760631897232L12.902365384615385,145.75017748637632L13.090846153846154,164.23498634316704L13.262192307692308,149.45378912849858L13.467807692307693,161.31243000382727L13.65628846153846,162.59817199002612L13.900456730769232,153.13204235380346L14.118923076923076,117.71426096287641L14.375942307692307,162.3329684111205L14.560139423076924,154.52714371139353L14.714350961538463,159.5895070894198L14.90283173076923,162.03026909448883L15.07846153846154,164.25008726119995L15.284076923076922,166.50907238505104L15.45970673076923,155.87852002273905L15.631052884615386,163.36233287101442L15.823817307692309,171.095408574424L15.990879807692307,159.1418936279687L16.222197115384617,167.25789197534323L16.40639423076923,153.26475923440674L16.58630769230769,161.80300003832036L16.809057692307693,149.94195064089516L16.988971153846155,152.3263899142092L17.190302884615384,163.867339651693L17.370216346153846,147.61676173047587L17.64008653846154,171.32181144979867L17.832850961538462,164.5014463337985L18.034182692307695,163.29538818516514L18.205528846153847,162.2300325645642L18.389725961538463,143.3277101787654L18.582490384615383,165.19985060529277L18.796673076923078,151.054783758792L18.959451923076923,169.66004869206384L19.182201923076924,164.0243443616412L19.42208653846154,159.8399298475547L19.666254807692308,159.04344993287867L19.914706730769232,136.84151341698387L20.158875000000002,150.8704580881379L20.381625,158.8948576667092L20.540120192307693,148.29953278736636L20.801423076923076,165.38167064569214L21.04559134615385,157.46777535568583L21.25120673076923,169.66604661941528L21.469673076923076,144.24205422130498L21.692423076923074,142.99556670947507L21.932307692307692,134.53655896945432L22.129355769230767,162.17459819262677L22.3306875,161.8935815691948L22.557721153846153,168.56887009401214L22.793322115384616,156.79708647186106L23.003221153846155,142.68555910478938L23.20883653846154,167.06189953874457L23.427302884615383,147.85256671363658L23.615783653846155,167.90237844058058L23.851384615384614,141.8110869526863L24.02273076923077,168.58530774780294L24.23691346153846,112.88091698559849L24.429677884615387,157.79309367998079L24.648144230769233,147.87929183786565L24.862326923076925,155.6303787068887L25.076509615384612,163.94631136276504L25.47060576923077,153.71528594060376L25.65051923076923,151.27471095865423L25.88183653846154,148.83295149694789L26.185975961538464,171.58618541332808L26.357322115384616,160.530636199496L26.5629375,169.6715955713933L26.77712019230769,158.69033349914983L27.04270673076923,170.50102212618697L27.256889423076924,163.21424053202975L27.47963942307692,163.77992312745616L27.71952403846154,157.0742163712328L27.929423076923076,160.23976369743997L28.199293269230772,168.5082578191703L28.486298076923077,150.54196396741003L28.721899038461537,144.96157052571124L28.910379807692305,170.66248781708154L29.038889423076924,172.35344206643376L29.291625,173.7093321088363L29.527225961538463,161.64198392223227L29.79709615384615,154.87076992067423L30.058399038461538,170.09160693802616L30.255447115384616,166.4115697998892L30.443927884615384,160.5724934122779L30.713798076923077,156.52429646795446L30.945115384615384,155.09268723834646L31.185000000000002,155.39281618595123L31.390615384615383,136.40794587135315L31.737591346153845,172.21314145827836L32.06314903846154,163.96744497526777L32.363004807692306,165.80540748888797L32.63715865384615,160.9727192913944L32.864192307692306,171.5177823068066L33.08265865384615,149.28924714706162L33.47675480769231,171.0039530701258L33.609548076923076,159.62499112974513L33.935105769230766,158.1072697422721L34.17070673076923,153.36545679785988L34.33776923076923,173.4722266556187L34.6290576923077,162.01968910070983L34.89036057692308,162.83446970717475L35.25447115384615,161.56725499846718L35.520057692307695,160.47033562985334L35.785644230769236,167.30756099996242L36.13690384615385,155.97526612335986L36.37678846153847,162.32686378468168L36.52243269230769,155.91573282805356L36.668076923076924,166.80372251434758L36.916528846153845,148.45351515574887L37.07930769230769,154.18217716975644L37.20353365384615,145.67531069300392L37.507673076923076,169.3652648891915L37.74327403846154,143.58553353764793L38.01314423076923,174.93876574967396L38.334418269230774,143.76738954403183L38.56145192307692,153.56490976160222L38.76278365384615,151.8113162544641L38.985533653846154,169.85785561258143L39.18258173076923,168.32446744225243L39.41389903846154,162.65273718400434L39.59809615384615,173.56190004538405L39.88510096153846,168.1396394466812L40.16782211538462,146.7574192691933L40.33916826923077,151.53591751781377L40.69899519230769,148.98298480023038L40.93459615384615,161.72552451220426L41.24301923076923,140.7277099761096L41.49147115384615,171.92130746556953L41.722788461538464,173.79222860796884L41.894134615384615,143.53639441186732L42.27537980769231,170.04181742735884L42.49384615384616,144.27472811937332L42.703745192307686,173.83294839649037L42.90079326923077,149.96992258592084L43.06785576923077,100.29292310909793L43.27775480769231,126.12437894127585L43.45766826923077,137.79351384531367L43.66328365384615,142.15211641788483L43.98884134615385,139.59117527441546L44.228725961538466,109.8071728348732L44.468610576923076,156.1248198801821L44.699927884615384,147.84786715832624L44.94837980769231,168.96165820753032L45.269653846153844,173.40464597127655L45.51382211538461,146.55452555959874L45.775124999999996,146.12405108863658L46.036427884615385,161.58519603041086L46.23347596153846,150.49316531961614L46.46050961538461,129.3813577944582L46.70039423076923,135.1355844302611L46.8974423076923,149.94559279626066L47.124475961538465,159.9558805850419L47.48001923076923,157.47907107255676L47.7241875,158.69640935280106L48.114000000000004,166.64847893877462L48.452408653846156,134.7419151501222L48.777966346153846,149.317614717917L48.97501442307692,146.825378195806L49.266302884615385,147.3322156450965L49.44621634615385,164.87561006166717L49.70751923076923,170.27973541210997L50.007375,168.03278810327703L50.337216346153845,166.8897111889991L50.65849038461539,170.51395429535344L50.915509615384615,169.22120133990592L51.19394711538462,152.6070588664575L51.46810096153846,161.34025209058416L51.72940384615384,166.4685603000901L51.986423076923074,168.95722659880465L52.269144230769236,124.03374339775607L52.594701923076926,135.28940854831174L52.94167788461538,168.13338496197355L53.20298076923077,171.97833902693608L53.657048076923076,160.0594530295242L53.98260576923077,168.77544552155516L54.235341346153845,161.71276258203116L54.45809134615384,151.48613340204412L54.65513942307692,172.307900138538L54.920725961538466,133.79581793871793L55.28483653846154,145.13542050394148L55.64466346153846,152.9347497468645L55.95737019230769,150.64482188766652L56.28292788461539,153.3260404765606L56.544230769230765,173.81204136969015L56.895490384615385,164.7981920811263L57.14394230769231,173.74394007772207L57.5166201923077,132.1239607279951L57.893581730769235,171.34111799028787L58.326230769230776,144.84820334477857L58.694624999999995,164.14673660695553L59.041600961538464,157.2359026534991L59.40571153846154,149.4155668778853L59.75697115384616,154.71290082823145L59.96687019230769,158.95845391939986L60.18105288461538,157.2653180333701L60.47234134615385,170.3356157622554L60.772197115384614,154.00970348986712L61.033500000000004,168.51479104025796L61.32050480769231,157.94513148746708L61.70175,147.61828908595174L62.07442788461538,150.76859043132174L62.352865384615384,164.67542578957298L62.63558653846154,169.66991775821555L63.029682692307695,165.24694926088506L63.32525480769231,149.74656423113564L63.612259615384616,172.8503160388632L64.040625,159.75275189768183L64.3276298076923,146.65798770839518L64.54609615384615,169.35505954108456L64.89307211538461,139.80603366819295L65.16722596153846,149.64599614522675L65.54847115384615,168.83197445828807L65.83975961538462,160.1014001572674L66.11819711538462,158.0038459571925L66.44803846153846,170.93459806388074L66.79501442307692,150.85062164881012L67.17197596153846,174.89073842238975L67.49753365384615,170.30818570472977L67.77597115384616,160.99340572682294L68.1058125,140.1421118161895L68.38425000000001,139.81180261210963L68.69267307692307,163.8678132038225L68.84688461538461,158.90563307567075L69.08676923076924,164.95729360797188L69.35663942307693,164.9644568332217L69.59224038461538,153.3379020582546L69.89637980769231,162.74931064789945L70.26049038461538,152.5851340022954L70.57748076923077,167.48256548629567L70.96300961538462,155.41048507527873L71.38709134615384,128.76454115997663L71.62697596153846,165.35654720664024L71.89684615384616,161.64376064186746L72.28665865384616,164.62740760364315L72.68075480769231,162.2390084754337L72.87780288461538,167.17735754224387L73.1262548076923,141.2024753581394L73.51606730769231,162.9949427368966L73.68741346153847,162.75844001363623L74.08579326923078,165.82157300006259L74.36851442307692,159.8759977356954L74.69407211538461,162.14827229082584L74.95965865384616,150.20528638633817L75.27664903846154,170.09139473871753L75.55508653846154,168.58553313463926L75.85922596153846,171.47493183341894L76.12481249999999,156.27642369812185L76.36898076923077,167.09484677829525L76.54889423076924,147.62335309657186L76.84875000000001,166.62671831927517L77.05008173076922,139.9839933595874L77.24284615384616,154.94520751996473L77.5255673076923,163.50095176967707L78.02247115384614,161.53955999152228L78.53222596153846,147.34798073497686L78.67358653846154,160.91218494285238L78.86206730769231,150.0367761579427L79.14478846153847,169.7729477157647L79.51318269230768,166.45154838941315L80.11289423076923,162.0815086337653L80.5155576923077,151.8699168319052L80.80256250000001,151.8944384401495L81.0338798076923,157.827517922629L81.37657211538462,174.75404085659167L81.64215865384615,158.62311786955053L81.97628365384615,159.3016257584095L82.22045192307692,159.49963169070807L82.59741346153847,170.19589270786807L83.01721153846154,170.98944499140435L83.23996153846154,151.4593027775938L83.55695192307692,171.9499717557972L83.82253846153846,145.3962817896496L84.09240865384616,168.3415273075754L84.43510096153845,159.39116547459906L84.68355288461538,164.92011676864192L84.92343749999999,157.87153669108045L85.16332211538462,169.72933236577293L85.42890865384615,138.40037269754842L85.73733173076923,150.15219339999288L85.9729326923077,110.916876912117L86.23423557692307,126.49115046045996L86.50410576923076,167.434031188488L86.71828846153846,162.5331502854824L87.22375961538462,162.68215735933998L87.4850625,154.67189001495188L87.90914423076923,168.76539842378008L88.29895673076922,168.1536991494623L88.65021634615384,134.10553781552747L89.05716346153847,144.53877599130976L89.69114423076923,156.64400804855606L89.96529807692308,167.09937969121066L90.42364903846155,153.1039697040211L90.91198557692309,168.16709527982906L91.1604375,165.73983670364726L91.80298557692308,153.5270112048496L92.42411538461538,147.59440767223185L92.77109134615384,174.05501347441566L93.03667788461539,151.04625742272898L93.67494230769232,159.84768291495064L94.0090673076923,158.85860635204747L94.35175961538461,154.82204800031403L94.61734615384616,153.06863192536613L94.93005288461538,169.0100486413999L95.68397596153845,160.77485602416775L96.04380288461539,166.6582712774927L96.60496153846154,168.3199615038254L97.17040384615385,161.3909821117466L97.5816346153846,140.20325878533453L98.01856730769232,125.76005790450357L98.46406730769232,146.3858235126192L98.81961057692308,170.69211539626122L99.15801923076923,171.00770851834253L99.44502403846154,134.23112144253471L99.82626923076924,166.2124728993936L100.30603846153845,169.35073223371398L101.01712500000001,160.924234746532L101.31269711538461,138.3139991868626L102.01521634615384,164.8646608171138L102.87623076923077,170.8937538929961L103.13753365384615,142.54444536566734L103.88288942307692,144.02414830977267L104.32410576923077,160.50840442559937L104.7953076923077,152.83106700669634L105.16370192307693,165.58289073814046L105.51067788461539,165.3652210032398L105.90477403846154,171.2499891770157L106.30743749999999,162.76274873858148L106.51733653846154,161.41143956374037L107.0956298076923,147.56919791481712L107.63537019230769,169.79827915809372L107.98234615384615,159.2746656564149L108.34645673076922,168.78127680651167L108.96330288461537,160.20152945816517L109.37453365384616,154.96500080011108L109.80718269230769,163.71524070203304L110.14130769230769,163.81810341775417L110.48828365384615,129.81042239882728L111.04515865384616,149.286209220236L111.486375,144.03150934793732L111.87190384615386,155.83870807561007L112.19317788461538,159.81590816649523L112.63867788461538,158.99338048696518L113.00707211538462,163.94093444807962L113.82525,169.13180908425286L114.43352884615385,141.89825890822843L114.78907211538461,166.5593780075962L115.35879807692308,145.57000468806788L115.53871153846154,137.11362726038152L116.03561538461538,115.54390082034199L116.74241826923078,157.89449497786435L117.12366346153846,156.9451356516643L117.68910576923076,164.03265490179712L117.97182692307693,154.12839363650843L118.36592307692307,165.35178411142394L118.76858653846155,164.1717269718647L119.23122115384615,154.2124197672714L119.72384134615385,133.7603075233373L120.19932692307692,171.37890565192157L120.619125,165.28489577228373L121.14601442307692,151.14513270963323L121.47157211538462,155.68231358853254L121.84425,170.29458037221974L122.3368701923077,165.5862991146066L122.70098076923077,147.09479698809713L123.2364375,171.60140142251146L123.74619230769231,171.02119036763906L124.1745576923077,151.88660744645378L124.59007211538461,170.11477023092183L125.22405288461539,164.99458433958617L125.63528365384616,153.9866804643111L125.99082692307692,136.1623365608129L126.29925,132.61760105869988L126.80900480769232,167.919983190569L127.28020673076922,157.9861974485896L127.62289903846154,171.8222379623489L127.87563461538461,156.24330142411318L128.18405769230768,149.2463637048548L128.70666346153845,-47.522482590241836L128.93798076923076,77.97831715237011L129.22926923076923,141.53709568489683L129.86325,138.2206410819834L130.3558701923077,170.195629556748L131.33254326923077,151.41742638295347L132.2106923076923,165.17425721070984L132.69046153846153,162.96433928067034L133.12311057692307,129.05355422063306L133.78707692307694,131.2486589605158L134.3482355769231,157.72014507244933L134.9950673076923,95.21812748908997L135.58621153846155,170.99988052181223L135.86893269230768,156.10179685462606L136.83703846153847,133.97951780124143L137.62951442307693,148.43744555386633L138.73469711538462,161.01950504292142L139.40723076923078,155.2851172441786L139.76705769230767,141.9076484279199L140.34535096153846,146.8618045449257L141.47623557692307,150.3067799969153L142.2729951923077,119.60681984099476L142.67565865384614,147.31868044625628L143.4038798076923,117.32934340563688L143.9521875,157.70496862584895L144.6675576923077,146.49631821025503L145.78559134615386,160.31842729991132L146.5138125,169.35753639855167L147.9231346153846,136.13660889322108L148.3772019230769,148.9100218063051L149.23821634615385,123.08166144652799L149.75653846153847,172.35669968548146L150.22774038461537,158.98649419979617L151.74843750000002,165.32764254374936L152.8065,170.8904773918065L153.8645625,169.58361198346722L154.21582211538464,158.27651367675173L155.1924951923077,138.96170340884817L155.86502884615385,167.47813028097153L156.704625,165.9417041838169L158.16106730769232,156.72324590791357L158.5037596153846,158.81774899363518L159.46329807692308,157.30142068862915L159.93878365384617,154.90161674672908L160.4571057692308,144.47011452913284L161.03968269230768,164.09907688200474L162.29907692307694,133.42733443867075L162.78741346153845,168.82146100158042L163.45566346153848,136.3760416453535L164.15389903846156,128.29893511533737L164.9378076923077,146.263695017858L165.5503701923077,156.90709083324128L166.1329471153846,160.45268832011655L166.89972115384614,151.47850621559402L167.86782692307693,163.6671793569218L168.87448557692306,156.83785031871363L169.26429807692307,153.6022592376579L169.7440673076923,169.06269924613562L170.54939423076922,139.7357513389804L171.18765865384617,141.16510190476072L171.88589423076925,134.88372662934393L172.8068798076923,148.2770732289011L174.079125,157.34747872840273L174.8287644230769,143.87824390151283L175.415625,139.3454029180787L175.71548076923077,155.1901574541222L176.5379423076923,141.3208130381324L177.11195192307693,167.26023515923455L179.28376442307692,168.7604812742634L179.92202884615384,156.4537959451025L181.12145192307693,160.965774259784L182.18379807692307,172.12112458490512L183.0448125,158.34975480762395L183.4817451923077,144.19589068131015L183.880125,119.38849192857742L184.75827403846154,152.7468634437431L185.91486057692308,126.75263275883414L187.03717788461537,155.96223205057058L187.92817788461537,161.99722354791382L188.48505288461538,166.7626589509574L189.18757211538463,127.76398185708307L190.117125,62.12203671715478L191.0252596153846,139.82137196172368L192.45600000000002,138.52739016847178L193.37698557692306,166.78104356337678L194.5335721153846,151.61530883203852L196.26845192307692,117.93950393525037L196.9666875,145.08736755089328L197.56639903846155,139.8381273150444L198.51308653846155,167.3982863947749L199.39980288461538,160.72598544440487L201.44310576923078,138.23448558829048L203.6577548076923,170.36303562941876L204.28316826923077,145.9804389124567L205.62395192307693,127.0589670376344L206.2836346153846,171.25574912943623L207.1403653846154,155.16831171512604L207.71009134615383,156.51890157027677L209.94615865384617,112.92515035109088L210.67866346153846,163.6027271137996L211.90378846153845,132.8656800335104L213.0518076923077,133.4823623949831L214.36260576923078,110.9295273477381L215.0180048076923,127.42782937938517L215.70767307692307,119.47066221453927L216.71433173076923,144.53171706741506L217.81951442307692,107.74830244887958L218.8604423076923,145.40207950635389L220.0427307692308,155.78787615082481L220.48823076923077,143.756659691984L221.51202403846153,163.91773758693174L222.55723557692306,116.33008367365058L222.91277884615383,148.74680577083066L224.25784615384617,143.76277630708435L225.33304326923079,164.09658443927765L226.04841346153847,151.02403044429693L227.13217788461537,78.0555241324685L227.65478365384615,134.31222713535482L227.95035576923078,157.33908906308088L228.53721634615383,154.49104345386678L229.17976442307693,153.24067401344126L230.20784134615383,97.84292024374008L231.17166346153846,110.73593444173987L231.9555721153846,144.0026790147478L232.52101442307693,159.24701380865142L233.04790384615387,148.60313365134328L233.553375,162.25807883929122L234.61572115384615,144.86665629256856L235.60952884615386,156.42089666019785L236.54764903846151,82.7385446808555L237.3872451923077,152.20761584693736L239.1949471153846,124.10744009776548L240.5871346153846,130.6615790020336L241.82511057692307,138.31371385671875L242.78464903846154,141.40434044057673L243.5300048076923,138.86206324533984L244.17683653846154,166.7059741616249L245.18777884615386,122.65929610620847L247.0083317307692,159.15846915136683L248.23774038461536,136.52929510311648L249.02164903846153,152.3235557946292L249.76272115384617,134.34141712838954L250.09684615384617,135.91795009374619L251.45048076923078,128.5625657818534L252.34148076923077,140.29200844873083L252.97546153846153,140.19123176011175L253.85789423076923,167.13176825913516L254.6760721153846,140.99615528908643L255.72556730769233,140.31887024370107L256.5822980769231,155.57107319615105" style="fill: none;" fill="none"></path></g></g></g></g></g></g><g transform="translate(51, 177)" clip-path="url(#clip_1)"><clipPath id="clip_1"><rect width="278" height="23"></rect></clipPath><g><g><line x1="0" y1="0" x2="0" y2="5" style="visibility: inherit;" fill="rgb(0, 0, 0)" stroke="rgb(204, 204, 204)" stroke-width="1px"></line><line x1="21.418269230769234" y1="0" x2="21.418269230769234" y2="5" style="visibility: inherit;" fill="rgb(0, 0, 0)" stroke="rgb(204, 204, 204)" stroke-width="1px"></line><line x1="42.83653846153847" y1="0" x2="42.83653846153847" y2="5" style="visibility: inherit;" fill="rgb(0, 0, 0)" stroke="rgb(204, 204, 204)" stroke-width="1px"></line><line x1="64.2548076923077" y1="0" x2="64.2548076923077" y2="5" style="visibility: inherit;" fill="rgb(0, 0, 0)" stroke="rgb(204, 204, 204)" stroke-width="1px"></line><line x1="85.67307692307693" y1="0" x2="85.67307692307693" y2="5" style="visibility: inherit;" fill="rgb(0, 0, 0)" stroke="rgb(204, 204, 204)" stroke-width="1px"></line><line x1="107.09134615384616" y1="0" x2="107.09134615384616" y2="5" style="visibility: inherit;" fill="rgb(0, 0, 0)" stroke="rgb(204, 204, 204)" stroke-width="1px"></line><line x1="128.5096153846154" y1="0" x2="128.5096153846154" y2="5" style="visibility: inherit;" fill="rgb(0, 0, 0)" stroke="rgb(204, 204, 204)" stroke-width="1px"></line><line x1="149.9278846153846" y1="0" x2="149.9278846153846" y2="5" style="visibility: inherit;" fill="rgb(0, 0, 0)" stroke="rgb(204, 204, 204)" stroke-width="1px"></line><line x1="171.34615384615387" y1="0" x2="171.34615384615387" y2="5" style="visibility: inherit;" fill="rgb(0, 0, 0)" stroke="rgb(204, 204, 204)" stroke-width="1px"></line><line x1="192.76442307692307" y1="0" x2="192.76442307692307" y2="5" style="visibility: inherit;" fill="rgb(0, 0, 0)" stroke="rgb(204, 204, 204)" stroke-width="1px"></line><line x1="214.18269230769232" y1="0" x2="214.18269230769232" y2="5" style="visibility: inherit;" fill="rgb(0, 0, 0)" stroke="rgb(204, 204, 204)" stroke-width="1px"></line><line x1="235.60096153846155" y1="0" x2="235.60096153846155" y2="5" style="visibility: inherit;" fill="rgb(0, 0, 0)" stroke="rgb(204, 204, 204)" stroke-width="1px"></line><line x1="257.0192307692308" y1="0" x2="257.0192307692308" y2="5" style="visibility: inherit;" fill="rgb(0, 0, 0)" stroke="rgb(204, 204, 204)" stroke-width="1px"></line><line x1="278.4375" y1="0" x2="278.4375" y2="5" style="visibility: inherit;" fill="rgb(0, 0, 0)" stroke="rgb(204, 204, 204)" stroke-width="1px"></line></g><g transform="translate(0, 8)"><text x="0" y="0" dx="0em" dy="0.95em" style="text-anchor: middle; visibility: hidden; font-family: Roboto, sans-serif; font-size: 12px; font-weight: 200;" fill="rgb(255, 255, 255)" stroke="none" stroke-width="1px">0</text><text x="21.418269230769234" y="0" dx="0em" dy="0.95em" style="text-anchor: middle; visibility: inherit; font-family: Roboto, sans-serif; font-size: 12px; font-weight: 200;" fill="rgb(255, 255, 255)" stroke="none" stroke-width="1px">5k</text><text x="42.83653846153847" y="0" dx="0em" dy="0.95em" style="text-anchor: middle; visibility: hidden; font-family: Roboto, sans-serif; font-size: 12px; font-weight: 200;" fill="rgb(255, 255, 255)" stroke="none" stroke-width="1px">10k</text><text x="64.2548076923077" y="0" dx="0em" dy="0.95em" style="text-anchor: middle; visibility: inherit; font-family: Roboto, sans-serif; font-size: 12px; font-weight: 200;" fill="rgb(255, 255, 255)" stroke="none" stroke-width="1px">15k</text><text x="85.67307692307693" y="0" dx="0em" dy="0.95em" style="text-anchor: middle; visibility: hidden; font-family: Roboto, sans-serif; font-size: 12px; font-weight: 200;" fill="rgb(255, 255, 255)" stroke="none" stroke-width="1px">20k</text><text x="107.09134615384616" y="0" dx="0em" dy="0.95em" style="text-anchor: middle; visibility: inherit; font-family: Roboto, sans-serif; font-size: 12px; font-weight: 200;" fill="rgb(255, 255, 255)" stroke="none" stroke-width="1px">25k</text><text x="128.5096153846154" y="0" dx="0em" dy="0.95em" style="text-anchor: middle; visibility: hidden; font-family: Roboto, sans-serif; font-size: 12px; font-weight: 200;" fill="rgb(255, 255, 255)" stroke="none" stroke-width="1px">30k</text><text x="149.9278846153846" y="0" dx="0em" dy="0.95em" style="text-anchor: middle; visibility: inherit; font-family: Roboto, sans-serif; font-size: 12px; font-weight: 200;" fill="rgb(255, 255, 255)" stroke="none" stroke-width="1px">35k</text><text x="171.34615384615387" y="0" dx="0em" dy="0.95em" style="text-anchor: middle; visibility: hidden; font-family: Roboto, sans-serif; font-size: 12px; font-weight: 200;" fill="rgb(255, 255, 255)" stroke="none" stroke-width="1px">40k</text><text x="192.76442307692307" y="0" dx="0em" dy="0.95em" style="text-anchor: middle; visibility: inherit; font-family: Roboto, sans-serif; font-size: 12px; font-weight: 200;" fill="rgb(255, 255, 255)" stroke="none" stroke-width="1px">45k</text><text x="214.18269230769232" y="0" dx="0em" dy="0.95em" style="text-anchor: middle; visibility: hidden; font-family: Roboto, sans-serif; font-size: 12px; font-weight: 200;" fill="rgb(255, 255, 255)" stroke="none" stroke-width="1px">50k</text><text x="235.60096153846155" y="0" dx="0em" dy="0.95em" style="text-anchor: middle; visibility: inherit; font-family: Roboto, sans-serif; font-size: 12px; font-weight: 200;" fill="rgb(255, 255, 255)" stroke="none" stroke-width="1px">55k</text><text x="257.0192307692308" y="0" dx="0em" dy="0.95em" style="text-anchor: middle; visibility: hidden; font-family: Roboto, sans-serif; font-size: 12px; font-weight: 200;" fill="rgb(255, 255, 255)" stroke="none" stroke-width="1px">60k</text><text x="278.4375" y="0" dx="0em" dy="0.95em" style="text-anchor: middle; visibility: hidden; font-family: Roboto, sans-serif; font-size: 12px; font-weight: 200;" fill="rgb(255, 255, 255)" stroke="none" stroke-width="1px">65k</text></g><line x1="0" y1="0" x2="278.4375" y2="0" fill="rgb(0, 0, 0)" stroke="rgb(204, 204, 204)" stroke-width="1px"></line></g></g></g></g></svg>