<svg viewBox="0 0 330 200" xmlns="http://www.w3.org/2000/svg"><g><g><g><g><g><line x1="51.5625" y1="165" x2="46.5625" y2="165" style="visibility: inherit;" fill="rgb(0, 0, 0)" stroke="rgb(204, 204, 204)" stroke-width="1px"></line><line x1="51.5625" y1="152.3076923076923" x2="46.5625" y2="152.3076923076923" style="visibility: inherit;" fill="rgb(0, 0, 0)" stroke="rgb(204, 204, 204)" stroke-width="1px"></line><line x1="51.5625" y1="139.6153846153846" x2="46.5625" y2="139.6153846153846" style="visibility: inherit;" fill="rgb(0, 0, 0)" stroke="rgb(204, 204, 204)" stroke-width="1px"></line><line x1="51.5625" y1="126.92307692307693" x2="46.5625" y2="126.92307692307693" style="visibility: inherit;" fill="rgb(0, 0, 0)" stroke="rgb(204, 204, 204)" stroke-width="1px"></line><line x1="51.5625" y1="114.23076923076923" x2="46.5625" y2="114.23076923076923" style="visibility: inherit;" fill="rgb(0, 0, 0)" stroke="rgb(204, 204, 204)" stroke-width="1px"></line><line x1="51.5625" y1="101.53846153846155" x2="46.5625" y2="101.53846153846155" style="visibility: inherit;" fill="rgb(0, 0, 0)" stroke="rgb(204, 204, 204)" stroke-width="1px"></line><line x1="51.5625" y1="88.84615384615385" x2="46.5625" y2="88.84615384615385" style="visibility: inherit;" fill="rgb(0, 0, 0)" stroke="rgb(204, 204, 204)" stroke-width="1px"></line><line x1="51.5625" y1="76.15384615384615" x2="46.5625" y2="76.15384615384615" style="visibility: inherit;" fill="rgb(0, 0, 0)" stroke="rgb(204, 204, 204)" stroke-width="1px"></line><line x1="51.5625" y1="63.46153846153845" x2="46.5625" y2="63.46153846153845" style="visibility: inherit;" fill="rgb(0, 0, 0)" stroke="rgb(204, 204, 204)" stroke-width="1px"></line><line x1="51.5625" y1="50.769230769230774" x2="46.5625" y2="50.769230769230774" style="visibility: inherit;" fill="rgb(0, 0, 0)" stroke="rgb(204, 204, 204)" stroke-width="1px"></line><line x1="51.5625" y1="38.07692307692307" x2="46.5625" y2="38.07692307692307" style="visibility: inherit;" fill="rgb(0, 0, 0)" stroke="rgb(204, 204, 204)" stroke-width="1px"></line><line x1="51.5625" y1="25.38461538461537" x2="46.5625" y2="25.38461538461537" style="visibility: inherit;" fill="rgb(0, 0, 0)" stroke="rgb(204, 204, 204)" stroke-width="1px"></line><line x1="51.5625" y1="12.692307692307702" x2="46.5625" y2="12.692307692307702" style="visibility: inherit;" fill="rgb(0, 0, 0)" stroke="rgb(204, 204, 204)" stroke-width="1px"></line><line x1="51.5625" y1="0" x2="46.5625" y2="0" style="visibility: inherit;" fill="rgb(0, 0, 0)" stroke="rgb(204, 204, 204)" stroke-width="1px"></line></g><g transform="translate(41.5625, 0)"><text x="0" y="165" dx="0em" dy="0.3em" style="text-anchor: end; visibility: hidden; font-family: Roboto, sans-serif; font-size: 12px; font-weight: 200;" fill="rgb(255, 255, 255)" stroke="none" stroke-width="1px">0.03</text><text x="0" y="152.3076923076923" dx="0em" dy="0.3em" style="text-anchor: end; visibility: inherit; font-family: Roboto, sans-serif; font-size: 12px; font-weight: 200;" fill="rgb(255, 255, 255)" stroke="none" stroke-width="1px">0.04</text><text x="0" y="139.6153846153846" dx="0em" dy="0.3em" style="text-anchor: end; visibility: hidden; font-family: Roboto, sans-serif; font-size: 12px; font-weight: 200;" fill="rgb(255, 255, 255)" stroke="none" stroke-width="1px">0.05</text><text x="0" y="126.92307692307693" dx="0em" dy="0.3em" style="text-anchor: end; visibility: inherit; font-family: Roboto, sans-serif; font-size: 12px; font-weight: 200;" fill="rgb(255, 255, 255)" stroke="none" stroke-width="1px">0.06</text><text x="0" y="114.23076923076923" dx="0em" dy="0.3em" style="text-anchor: end; visibility: hidden; font-family: Roboto, sans-serif; font-size: 12px; font-weight: 200;" fill="rgb(255, 255, 255)" stroke="none" stroke-width="1px">0.07</text><text x="0" y="101.53846153846155" dx="0em" dy="0.3em" style="text-anchor: end; visibility: inherit; font-family: Roboto, sans-serif; font-size: 12px; font-weight: 200;" fill="rgb(255, 255, 255)" stroke="none" stroke-width="1px">0.08</text><text x="0" y="88.84615384615385" dx="0em" dy="0.3em" style="text-anchor: end; visibility: hidden; font-family: Roboto, sans-serif; font-size: 12px; font-weight: 200;" fill="rgb(255, 255, 255)" stroke="none" stroke-width="1px">0.09</text><text x="0" y="76.15384615384615" dx="0em" dy="0.3em" style="text-anchor: end; visibility: inherit; font-family: Roboto, sans-serif; font-size: 12px; font-weight: 200;" fill="rgb(255, 255, 255)" stroke="none" stroke-width="1px">0.1</text><text x="0" y="63.46153846153845" dx="0em" dy="0.3em" style="text-anchor: end; visibility: hidden; font-family: Roboto, sans-serif; font-size: 12px; font-weight: 200;" fill="rgb(255, 255, 255)" stroke="none" stroke-width="1px">0.11</text><text x="0" y="50.769230769230774" dx="0em" dy="0.3em" style="text-anchor: end; visibility: inherit; font-family: Roboto, sans-serif; font-size: 12px; font-weight: 200;" fill="rgb(255, 255, 255)" stroke="none" stroke-width="1px">0.12</text><text x="0" y="38.07692307692307" dx="0em" dy="0.3em" style="text-anchor: end; visibility: hidden; font-family: Roboto, sans-serif; font-size: 12px; font-weight: 200;" fill="rgb(255, 255, 255)" stroke="none" stroke-width="1px">0.13</text><text x="0" y="25.38461538461537" dx="0em" dy="0.3em" style="text-anchor: end; visibility: inherit; font-family: Roboto, sans-serif; font-size: 12px; font-weight: 200;" fill="rgb(255, 255, 255)" stroke="none" stroke-width="1px">0.14</text><text x="0" y="12.692307692307702" dx="0em" dy="0.3em" style="text-anchor: end; visibility: hidden; font-family: Roboto, sans-serif; font-size: 12px; font-weight: 200;" fill="rgb(255, 255, 255)" stroke="none" stroke-width="1px">0.15</text><text x="0" y="0" dx="0em" dy="0.3em" style="text-anchor: end; visibility: hidden; font-family: Roboto, sans-serif; font-size: 12px; font-weight: 200;" fill="rgb(255, 255, 255)" stroke="none" stroke-width="1px">0.16</text></g><line x1="51.5625" y1="0" x2="51.5625" y2="165" fill="rgb(0, 0, 0)" stroke="rgb(204, 204, 204)" stroke-width="1px"></line></g></g><g transform="translate(51, 0)" clip-path="url(#clip_0)"><clipPath id="clip_0"><rect width="278" height="165"></rect></clipPath><g><g><g><line x1="0" y1="0" x2="0" y2="165" fill="rgb(0, 0, 0)" stroke="rgb(189, 189, 189)" stroke-width="1px" opacity="0.25"></line><line x1="25.3125" y1="0" x2="25.3125" y2="165" fill="rgb(0, 0, 0)" stroke="rgb(189, 189, 189)" stroke-width="1px" opacity="0.25"></line><line x1="50.625" y1="0" x2="50.625" y2="165" fill="rgb(0, 0, 0)" stroke="rgb(189, 189, 189)" stroke-width="1px" opacity="0.25"></line><line x1="75.9375" y1="0" x2="75.9375" y2="165" fill="rgb(0, 0, 0)" stroke="rgb(189, 189, 189)" stroke-width="1px" opacity="0.25"></line><line x1="101.25" y1="0" x2="101.25" y2="165" fill="rgb(0, 0, 0)" stroke="rgb(189, 189, 189)" stroke-width="1px" opacity="0.25"></line><line x1="126.5625" y1="0" x2="126.5625" y2="165" fill="rgb(0, 0, 0)" stroke="rgb(189, 189, 189)" stroke-width="1px" opacity="0.25"></line><line x1="151.875" y1="0" x2="151.875" y2="165" fill="rgb(0, 0, 0)" stroke="rgb(189, 189, 189)" stroke-width="1px" opacity="0.25"></line><line x1="177.1875" y1="0" x2="177.1875" y2="165" fill="rgb(0, 0, 0)" stroke="rgb(189, 189, 189)" stroke-width="1px" opacity="0.25"></line><line x1="202.5" y1="0" x2="202.5" y2="165" fill="rgb(0, 0, 0)" stroke="rgb(189, 189, 189)" stroke-width="1px" opacity="0.25"></line><line x1="227.8125" y1="0" x2="227.8125" y2="165" fill="rgb(0, 0, 0)" stroke="rgb(189, 189, 189)" stroke-width="1px" opacity="0.25"></line><line x1="253.125" y1="0" x2="253.125" y2="165" fill="rgb(0, 0, 0)" stroke="rgb(189, 189, 189)" stroke-width="1px" opacity="0.25"></line><line x1="278.4375" y1="0" x2="278.4375" y2="165" fill="rgb(0, 0, 0)" stroke="rgb(189, 189, 189)" stroke-width="1px" opacity="0.25"></line></g><g><line x1="0" y1="165" x2="278.4375" y2="165" fill="rgb(0, 0, 0)" stroke="rgb(189, 189, 189)" stroke-width="1px" opacity="0.25"></line><line x1="0" y1="152.3076923076923" x2="278.4375" y2="152.3076923076923" fill="rgb(0, 0, 0)" stroke="rgb(189, 189, 189)" stroke-width="1px" opacity="0.25"></line><line x1="0" y1="139.6153846153846" x2="278.4375" y2="139.6153846153846" fill="rgb(0, 0, 0)" stroke="rgb(189, 189, 189)" stroke-width="1px" opacity="0.25"></line><line x1="0" y1="126.92307692307693" x2="278.4375" y2="126.92307692307693" fill="rgb(0, 0, 0)" stroke="rgb(189, 189, 189)" stroke-width="1px" opacity="0.25"></line><line x1="0" y1="114.23076923076923" x2="278.4375" y2="114.23076923076923" fill="rgb(0, 0, 0)" stroke="rgb(189, 189, 189)" stroke-width="1px" opacity="0.25"></line><line x1="0" y1="101.53846153846155" x2="278.4375" y2="101.53846153846155" fill="rgb(0, 0, 0)" stroke="rgb(189, 189, 189)" stroke-width="1px" opacity="0.25"></line><line x1="0" y1="88.84615384615385" x2="278.4375" y2="88.84615384615385" fill="rgb(0, 0, 0)" stroke="rgb(189, 189, 189)" stroke-width="1px" opacity="0.25"></line><line x1="0" y1="76.15384615384615" x2="278.4375" y2="76.15384615384615" fill="rgb(0, 0, 0)" stroke="rgb(189, 189, 189)" stroke-width="1px" opacity="0.25"></line><line x1="0" y1="63.46153846153845" x2="278.4375" y2="63.46153846153845" fill="rgb(0, 0, 0)" stroke="rgb(189, 189, 189)" stroke-width="1px" opacity="0.25"></line><line x1="0" y1="50.769230769230774" x2="278.4375" y2="50.769230769230774" fill="rgb(0, 0, 0)" stroke="rgb(189, 189, 189)" stroke-width="1px" opacity="0.25"></line><line x1="0" y1="38.07692307692307" x2="278.4375" y2="38.07692307692307" fill="rgb(0, 0, 0)" stroke="rgb(189, 189, 189)" stroke-width="1px" opacity="0.25"></line><line x1="0" y1="25.38461538461537" x2="278.4375" y2="25.38461538461537" fill="rgb(0, 0, 0)" stroke="rgb(189, 189, 189)" stroke-width="1px" opacity="0.25"></line><line x1="0" y1="12.692307692307702" x2="278.4375" y2="12.692307692307702" fill="rgb(0, 0, 0)" stroke="rgb(189, 189, 189)" stroke-width="1px" opacity="0.25"></line><line x1="0" y1="0" x2="278.4375" y2="0" fill="rgb(0, 0, 0)" stroke="rgb(189, 189, 189)" stroke-width="1px" opacity="0.25"></line></g></g></g><g><g><line x1="0" y1="203.0769230769231" x2="278.4375" y2="203.0769230769231" fill="rgb(0, 0, 0)" stroke="rgb(153, 153, 153)" stroke-width="1.5px"></line></g></g><g><g><line x1="-24284053.125" y1="0" x2="-24284053.125" y2="165" fill="rgb(0, 0, 0)" stroke="rgb(153, 153, 153)" stroke-width="1.5px"></line></g></g><g><g><g><g><g><path stroke="rgb(255, 112, 67)" stroke-width="2px" d="M17.7987234375,-2.4814811433439665L18.0851203125,1.5061089813261674L18.403832812500003,4.3135962265925425L18.7067109375,3.419991688307917L19.026309374999997,6.948459033361697L19.3110328125,9.560754574306229L19.5669421875,12.525670057120397L19.8581625,15.579312923069503L20.139229687500002,18.696081518261728L20.436426562500003,21.87538836118422L20.712965625,24.00665336986303L20.977903124999997,26.678578309329204L21.2657484375,29.87891108759209L21.540389062499997,31.985030179766298L21.840721875,34.65199346322788L22.1251640625,36.127748425424876L22.4106328125,38.199834319595595L22.709854687500002,39.30570948472194L22.997784375000002,40.547004322101365L23.292028124999998,42.57932035504031L23.570760937499998,43.38411271965845L23.914659375000003,45.81945563597125L24.2126859375,47.702951093880266L24.4883953125,49.442006027643814L24.771965625000004,51.05305790010296L25.0573078125,51.37265314420396L25.336996875,53.09424252060142L25.6127765625,53.86258340890646L25.8729328125,55.772689499465066L26.154309375,57.27705549907703L26.47215,58.481963981679236L26.796726562499998,59.603660466248556L27.1154671875,59.380151367054154L27.437765625,59.98104127871705L27.742809375,61.02652885090929L27.99945,61.441729681638726L28.338046875,62.80207302891398L28.630293750000003,63.68826410477505L28.921260937499998,65.21630364961231L29.22361875,65.33465171693568L29.5323328125,65.38362163450984L29.831990625,64.9869360088205L30.0913453125,66.03460829196372L30.3746765625,67.04166678732192L30.677681250000003,68.36204893668285L30.9845109375,69.06077631641575L31.250784375000002,69.04423836806687L31.546110937500004,70.22077372481127L31.825701562499997,70.44033957901108L32.0897109375,71.61392001528583L32.37260625,71.52611265595215L32.6319890625,72.69322752492337L32.9134640625,71.25537647289407L33.191325,71.90652884564639L33.471801562500005,72.09406527530028L33.7499859375,72.62515567816273L34.051050000000004,73.51395496064663L34.45914375,73.93429244544554L34.714490625,74.23961518154589L35.020870312499994,74.43341628788912L35.3497640625,75.59347722606452L35.600146875,76.26298776808318L35.897245312500004,77.30125849288197L36.19704375,77.86385374240214L36.50968125,78.89994537510339L36.8013375,79.61948052416454L37.1059875,80.34781630152263L37.408078124999996,80.79451079709395L37.6827328125,81.3578835003443L38.0206265625,82.23470186467277L38.362190625,82.39716234812315L38.669301562499996,82.34172639954647L38.9163796875,83.2683799862679L39.103790625,84.24216155968904L39.4061484375,85.24925521973769L39.690379687500005,85.78938218865014L40.0070109375,86.0701238969728L40.3135734375,86.90283644005763L40.59725625,87.58751126264724L40.8564140625,88.05020512202958L41.1819890625,88.36045036826806L41.49045,88.61472761356487L41.767424999999996,88.87527195617774L42.027004687499996,88.4696348198565L42.405384375000004,89.30921109363484L42.7501265625,89.85198792990889L43.0786125,90.4485309207347L43.3844578125,90.87208194288017L43.670854687500004,91.64262155143646L43.957139062500005,91.66073041017934L44.3578640625,92.3962858471888L44.55331875,92.74698176234541L44.913951562499996,93.04279756841473L45.1982390625,93.18071765935329L45.4387359375,93.96208453530366L45.769134375,94.36650331634023L46.096875000000004,94.79062333559888L46.506712500000006,95.16857073100498L46.808212499999996,95.50666905230116L47.098842187500004,96.05175353687912L47.484646875,96.23994169481112L47.7728296875,96.61964469615528L47.99784375,96.79912402390462L48.198557812500006,97.3045790749739L48.4818328125,97.25279595966562L48.697678124999996,97.3723370046691L48.888871875,97.2385263120153L49.233051562499995,97.80292120800418L49.513190625,97.606605506623L49.8268546875,98.3228458052349L50.18968125,98.13045454991551L50.4759796875,98.22142083278426L50.73114375,98.2612266410926L51.009468749999996,98.81123658976645L51.2517234375,99.3108179441418L51.5440828125,99.64525505247222L51.7798265625,100.27844211032071L52.1050640625,100.75362845554068L52.4286703125,100.63562354600948L52.643334375,100.6495505090754L53.031234375000004,100.59403447179757L53.3063953125,100.8829277384255L53.625825,100.60509248526544L53.9223046875,101.16241616529554L54.20214843749999,101.76239839885247L54.42575625,101.5574641749974L54.8337375,102.04974061883868L55.092501562500004,101.8644522880418L55.3530515625,102.44747226392347L55.60959375,102.40842297460007L55.8225421875,101.0965494443985L56.089603125,100.45880600306181L56.331984375000005,100.12447215022358L56.586923437500005,99.903986913738L56.941860937499996,99.62185669341675L57.22081875,98.5999964559192L57.5102671875,98.73933956032879L57.785484375,98.67276769012423L58.0582265625,99.12540766540515L58.405935937500004,99.68142132481745L58.673249999999996,99.57864794763029L58.971782812499995,99.46662502934159L59.274534375,99.72774317635078L59.517689062500004,99.7205096751113L59.78491875,99.21067855299698L60.0538640625,98.84278817440105L60.30073125,98.82804439240252L60.587184375,99.04826424603118L60.962906249999996,99.20828622725827L61.24843125,99.39485711294486L61.65106875,99.76322663219175L62.0130796875,99.39376231429986L62.3725171875,99.36187202458356L62.6107359375,99.27354129867574L62.9299828125,99.19762994681642L63.1535765625,99.51839829903844L63.4678734375,99.95720956584475L63.791803125,100.34125223411252L64.13106093750001,100.69590881306073L64.4913140625,101.1272063810304L64.7922796875,101.52561043099337L65.112553125,101.55536413029122L65.4274265625,101.7756051888558L65.73465,102.10516456590831L66.0542765625,102.48531295597752L66.373171875,101.8934479230721L66.74338125,101.54894911345288L67.10529375,101.90946417194428L67.42732500000001,102.34822600127205L67.875046875,102.53032583636363L68.2294921875,102.89442191618039L68.5154390625,103.10674428961246L68.78446875,103.10327343401666L69.0271875,103.53318323299358L69.3456609375,103.16089421519662L69.72782343749999,103.02613213075418L70.12257187499999,103.05290725923213L70.4865234375,103.03257314656213L70.8540890625,103.06706499194661L71.1508359375,103.51695412006522L71.5358953125,103.7805198218671L71.82846562499999,104.2217002100728L72.20714062500001,103.82461459208045L72.58435312499999,104.21401689899149L73.0200796875,104.0731614715657L73.403971875,104.31572021020722L73.7652515625,104.41979772172871L74.15682187499999,104.36932241012917L74.54174062499999,104.42294387932505L74.8054125,104.55882847572559L75.0749484375,104.66064356707808L75.39765468750001,105.01429157374568L75.70999687499999,105.05038381567859L76.01027343749999,105.36446286510969L76.3320375,105.47379653823708L76.725421875,105.38556644882387L77.11891874999999,105.35784828375905L77.43878437500001,105.59313564139461L77.761490625,105.92042523109907L78.15103593750001,106.161985683704L78.4574015625,106.11191086449395L78.7791796875,106.49228972313172L79.2015609375,106.62658850120246L79.53790781250001,106.51782832996466L79.8138,106.82777913236869L80.1796640625,106.59320976741368L80.49382031249999,106.54039462702198L80.8690078125,106.83734739035461L81.1883953125,106.97347308479065L81.4960265625,107.07056900963981L81.835115625,107.39978968635262L82.1961140625,107.36586557510306L82.5735796875,107.76217155223128L82.914046875,108.07362074153907L83.22266250000001,108.21714995005165L83.57142656250001,107.99051906017914L83.87926875000001,107.75986384052662L84.21136874999999,107.95381759820977L84.41294062499999,108.05933232117438L84.71024999999999,108.26964610786796L84.9993046875,108.4784389115012L85.2849703125,108.48405045207822L85.6260984375,108.65221915775972L86.001440625,108.64407242055714L86.3462390625,108.89164342436136L86.75156249999999,108.93083675473767L87.1760671875,108.51550197372111L87.467371875,108.72504323633261L87.774778125,108.87012029558821L88.182815625,109.06446042605575L88.577240625,109.21715486316143L88.8419671875,109.45151330229739L89.132315625,109.2499627380364L89.51619375,109.41298783181324L89.72329218750001,109.57087491487829L90.13509843749999,109.77830053234807L90.46726875,109.88608892539065L90.815990625,110.03046161061111L91.117153125,109.97795220563921L91.467225,110.25086595968145L91.77075,110.49726046224124L92.0965359375,110.78880354201891L92.40170625,110.83214146536514L92.7039234375,111.04980278351889L92.938471875,110.95255800755861L93.25755,111.16088173639115L93.5076234375,110.94159688143029L93.76568437499999,110.96242892792081L94.0660734375,111.11912459114092L94.54199062500001,111.24363103389032L95.0389453125,111.14301879299306L95.2379296875,111.25679939543396L95.474334375,111.19896837273168L95.788715625,111.45061090681249L96.17966718749999,111.64865221998856L96.7513359375,111.77729595123846L97.1667421875,111.74655120020147L97.48845,111.71639659748091L97.790146875,111.77800377324239L98.1613125,112.09963346609038L98.464640625,112.171599374099L98.8141078125,112.2534584883197L99.1177734375,112.33778639027713L99.49865625,112.58424183358909L99.9241734375,112.84108329256827L100.20307500000001,112.80083738566725L100.5362859375,113.06988376564419L100.8290671875,112.93781181679456L101.158565625,113.15071279295928L101.519325,113.22836179242326L101.820740625,113.3879544592561L102.097153125,113.44167850847565L102.37453593750001,113.6709101150218L102.670734375,113.43530334786345L103.00533750000001,113.37455375350086L103.27640625000001,112.73708836935636L103.5679921875,112.3321860177298L103.87569375,112.52884029914446L104.1503203125,112.65273410189572L104.62978125000001,112.77800540215569L104.92374375,112.78624077663513L105.36210000000001,112.9983918876666L105.7642875,113.20037249907169L106.1412328125,112.91093449502297L106.5565125,112.77311149520476L107.1624515625,112.80949631049448L107.465765625,112.99497982680779L107.91700312500001,112.97994551467967L108.415096875,113.17901799233441L108.71440312499999,113.34246203414108L109.3141828125,113.33227856001926L109.88582343750001,113.23852097333537L110.2504359375,113.51741726917024L110.54137499999999,113.47189571796811L111.1377515625,113.5497825225381L111.48679687500001,113.61339396387916L111.8476265625,113.62043500804117L112.1673375,113.60308927769253L112.510378125,113.80662042020518L113.211675,113.89516547798891L113.593078125,114.06425240386797L114.142809375,114.2551701782905L114.6801375,114.34994460484174L115.1268046875,114.15435965715795L115.5789421875,113.76287130597241L116.04796875000001,113.6544198352287L116.437078125,113.87661692151426L116.78895000000001,114.10178396146759L117.11576249999999,113.82873796438918L117.522928125,113.98834582448488L118.00679062500001,114.18922156244597L118.6687546875,114.2759011686135L118.98984375,114.05951960818955L119.6367328125,114.19882721590258L120.447703125,114.41762735260389L120.7464609375,114.25851583641601L121.43919375,114.11992830461433L121.88107968749999,114.2001134751331L122.3545078125,114.1785582780619L122.7416203125,114.32496137386646L123.098596875,114.46767742840042L123.50871562500001,114.68668123519042L123.9354421875,114.79352232400777L124.2129515625,114.88214243803768L124.7891625,114.79017889524461L125.3207671875,114.98726575794083L125.68137187500001,115.04696909615822L126.05191875,115.22917546365096L126.6369890625,115.29976554339373L127.045546875,115.30261104521966L127.4826234375,115.41773643178838L127.83286406250001,115.53354625466783L128.2050421875,115.21424385193818L128.7521296875,115.14495094418118L129.21937031250002,115.0092016844918L129.6201234375,115.02403210657297L129.98683125,115.08914382178271L130.45995,115.14351095352791L130.8259265625,115.25995806457996L131.5768359375,115.44107594167713L132.154565625,115.27939206717402L132.56550000000001,115.42744067677324L133.1209265625,115.31238911800055L133.3690453125,115.0924974681651L133.884590625,114.6053750562497L134.5454859375,114.6466822681632L134.961440625,114.67600866011834L135.5140828125,114.79280672925677L135.8553796875,114.7868005191206L136.3010484375,114.91899614150013L136.7502046875,115.03600329318782L137.2174875,115.03030929122906L137.7329765625,114.77445124175162L138.220003125,114.97915040163613L138.649725,115.10855227448215L139.1764921875,115.0653944998229L139.5263953125,115.077501111288L139.9178390625,115.26644420372497L140.39595,115.39753672028627L140.78411718750002,115.30501945154546L141.310603125,115.50782685965557L141.8267671875,115.70263525090678L142.24417031250002,115.66717542839928L142.70000625,115.84986874995403L143.309221875,115.97053544638875L143.731884375,115.9594931317336L144.1074375,115.73665192183036L144.45399375000002,115.47288183347517L144.9372234375,115.62834252221896L145.42606406250002,115.66566545147167L145.78728750000002,115.8659411513053L146.062040625,115.88189744660767L146.39103281250001,115.81560161380425L146.91000937500002,113.44331392417992L147.2096390625,112.55082614040396L147.53428593750002,112.40477643420017L148.146328125,112.22080029595452L148.619559375,112.40957447635886L149.50830937499998,112.37947201443072L150.3205453125,112.50887883805692L150.81128437499999,112.61210536097647L151.26156562499997,112.3235153969083L151.922475,112.06160476800139L152.4612234375,112.10525722949488L153.0839109375,111.43159273478403L153.6544828125,111.62898055844511L153.99202499999998,111.65514046488556L154.881421875,111.42880281138537L155.6214609375,111.36817153747423L156.5955,111.45082511357671L157.2378328125,111.4680364318881L157.64051250000003,111.33370002613232L158.192353125,111.25598798675838L159.22919531250002,111.21750324100302L159.958321875,110.83353833995355L160.381096875,110.76281820703183L161.086725,110.35601682339453L161.6182734375,110.40320923911592L162.30352499999998,110.32490727702734L163.30561875,110.40117081002407L163.9805484375,110.57773683993075L165.229284375,110.38421810320023L165.6993515625,110.33331963346568L166.4976375,109.99660199943465L167.0251078125,110.20618180152539L167.5186734375,110.26725359862432L168.85528593749999,110.39789615937947L169.81211249999998,110.58910841976399L170.76605625,110.76510287706L171.17188593749998,110.81640749337522L172.0602703125,110.65622921169961L172.689778125,110.80811510996278L173.4701625,110.94256837668914L174.7392046875,110.97612310485458L175.128159375,111.03227339598952L175.9919625,111.07173213992188L176.48341875,111.08504225276795L177.0144890625,110.98559613019182L177.5911359375,111.09828766345943L178.7130140625,110.88026274963289L179.22504375,111.04360559926897L179.893153125,110.85811728690459L180.55417500000001,110.58694116229604L181.273809375,110.5090472338318L181.8703546875,110.54510395991201L182.4478875,110.61878281021187L183.16357031249998,110.59667366832828L184.05255937500002,110.70410051268428L184.9754390625,110.73865477431349L185.392603125,110.738813219888L185.88442500000002,110.90232619042973L186.6272765625,110.7557782393145L187.242159375,110.62491859390575L187.91887499999999,110.42858916593991L188.78975156250002,110.37368026733402L189.9172828125,110.41405003394259L190.63783125,110.31334576347864L191.2154484375,110.16573496065901L191.5851375,110.18396180037331L192.355425,110.05773989275355L192.91221562500002,110.201627529125L194.7465421875,110.36046733040739L195.3774984375,110.39115318003729L196.4496515625,110.46836994554316L197.4252515625,110.6604371683625L198.2090109375,110.70973407089458L198.67515468750003,110.61315707078668L199.0958765625,110.26208940953883L199.90812656249997,110.25470742765019L200.93242500000002,109.98111853536612L201.93225468749998,110.00736852032925L202.7607609375,110.09512365204935L203.32297968749998,110.23108879367956L203.9813859375,109.96958757756042L204.830803125,109.04217057966308L205.6772671875,108.90687621564042L206.92034999999998,108.75903460027186L207.77089218749998,108.89754515734354L208.813359375,108.88234659424621L210.3171890625,108.52769408727482L210.974146875,108.44777490862873L211.5696515625,108.31542502330778L212.43134531249999,108.46018559281808L213.2357484375,108.53750117878978L215.0100421875,108.38949184231686L216.891815625,108.56301235162127L217.51486875,108.49264665415124L218.70182812500002,108.23413924717335L219.338184375,108.41613441544894L220.127203125,108.43767745142674L220.6793953125,108.4725221687735L222.5840203125,108.07573271986988L223.26707812499998,108.18138985055695L224.354475,107.9833016451702L225.3946359375,107.79208192405457L226.5701625,107.37973369626408L227.211440625,107.13110835199015L227.8716046875,106.80541618809991L228.8108390625,106.72648633563456L229.8223125,106.28811405665283L230.80186406250002,106.21919839899003L231.858928125,106.25183196255108L232.326815625,106.16718690371512L233.2300078125,106.27889869215677L234.1862578125,105.92815930012495L234.6138421875,105.89305781240246L235.8017578125,105.80984627248573L236.7788484375,105.92351270107919L237.463228125,105.91055580457963L238.4412046875,105.19435196464738L238.97694375,105.02236955115936L239.3418375,105.07235622125515L239.9183296875,105.09481729946278L240.5321296875,105.10520923145528L241.474865625,104.5854365995218L242.3683125,104.19086662464348L243.10996875,104.11525035861374L243.68481562500003,104.18518249437037L244.2152953125,104.15356821301054L244.755309375,104.25182115425709L245.73560625000002,104.18468230103048L246.6496265625,104.22727659661761L247.50532968750002,103.57253904498718L248.30919843750002,103.57667113547917L249.87816562499998,103.31564997772915L251.132203125,103.1173705707104L252.2522390625,102.9918401247871L253.127475,102.89582270777053L253.8331171875,102.77631143833572L254.464115625,102.91815554996857L255.39359062499997,102.64730308624584L256.9649625,102.7185351227633L258.06195,102.57832898542287L258.8047875,102.58583412572756L259.5081515625,102.42596160497631L259.8886828125,102.28133489232061L261.1034015625,102.0689775351256L261.93431250000003,101.96612259801016L262.5754921875,101.86271492616203L263.3805984375,102.00871963192307L264.15219375,101.9129204433462L265.1138859375,101.8112295809392L265.92165,101.8503335846515" style="fill: none;" fill="none"></path></g></g></g></g><g opacity="0.2"><g><g><g><path stroke="rgb(255, 112, 67)" stroke-width="2px" d="M9.6377765625,-1.2001584814145128L9.860779687500001,80.3531854886275L10.1380921875,-49.64309706137731L10.423096875,-61.183722592317125L10.7143453125,145.50571841116135L10.9979015625,82.27911644257031L11.2716984375,131.03836569648522L11.529464062499999,128.3969460313137L11.8037390625,102.43100668375308L12.109443749999999,-17.86709925303092L12.3906796875,99.52352821826935L12.670874999999999,106.63393192566359L12.9523078125,56.736620527047386L13.252021874999999,130.73560619583498L13.5715921875,89.90327321566069L13.8560484375,-3.7961963736094018L14.160346875,56.68957440898969L14.4930796875,30.61258730980066L14.858550000000001,144.94316031726507L15.144089062499999,109.53098932137857L15.446981249999999,70.16754489678604L15.731465625,37.12636113166809L16.0360453125,144.84209390786978L16.3185328125,112.9978957772255L16.6595484375,138.3474695109404L16.95943125,79.82957874353116L17.23550625,152.7325080679013L17.517459374999998,94.43639128254011L17.7987234375,141.2061287634648L18.0851203125,146.27701469338857L18.403832812500003,108.94319181258862L18.7067109375,-30.742321495826438L19.026309374999997,145.23106837501894L19.3110328125,114.44538425940732L19.5669421875,134.4110286121185L19.8581625,144.0372412135968L20.139229687500002,152.7920651435852L20.436426562500003,161.70136110140726L20.712965625,119.775127860216L20.977903124999997,149.2908173856827L21.2657484375,179.7895840125588L21.540389062499997,132.64566913247108L21.840721875,164.65465870327674L22.1251640625,109.46661888406828L22.4106328125,143.14090627890366L22.709854687500002,96.36166973755911L22.997784375000002,105.76574900975595L23.292028124999998,151.28253252460405L23.570760937499998,87.19127018864339L23.914659375000003,180.68250278440803L24.2126859375,153.7834095954895L24.4883953125,149.02679173419108L24.771965625000004,144.82509583807908L25.0573078125,70.27551928391824L25.336996875,156.5378723350855L25.6127765625,100.75061391179378L25.8729328125,174.12861446348518L26.154309375,151.90174927505163L26.47215,135.39868029837425L26.796726562499998,132.25741335978876L27.1154671875,44.69436517128577L27.437765625,100.02364500210837L27.742809375,131.67137476114127L27.99945,89.88407650819192L28.338046875,157.25495919585228L28.630293750000003,126.04305143539722L28.921260937499998,174.15226991360004L29.22361875,73.88163496668523L29.5323328125,68.96556622706927L29.831990625,35.6037690777045L30.0913453125,144.60646614432335L30.3746765625,143.49815416794556L30.677681250000003,169.82507436034768L30.9845109375,123.39789645029947L31.250784375000002,67.74291563492554L31.546110937500004,163.88167679882966L31.825701562499997,88.12127028520291L32.0897109375,167.19647298925196L32.37260625,64.29405219279803L32.6319890625,169.88990343820592L32.9134640625,-49.80472766436061L33.191325,127.32608654751226L33.471801562500005,88.22667250266443L33.7499859375,118.7964740395546L34.051050000000004,151.5939920109052L34.45914375,111.24346801867853L34.714490625,101.61799302467932L35.020870312499994,91.98784651664587L35.3497640625,181.72517715165247L35.600146875,138.12278292500056L35.897245312500004,174.17415463293975L36.19704375,130.86474424371352L36.50968125,177.44536105829934L36.8013375,148.70675046856587L37.1059875,150.93776722366994L37.408078124999996,124.49087943022067L37.6827328125,136.97559998012505L38.0206265625,169.5860233415778L38.362190625,98.72808474760791L38.669301562499996,76.71936224286372L38.9163796875,178.0821716384246L39.4061484375,190.09873484906097L39.690379687500005,142.50586879368012L40.0070109375,115.80062452417155L40.3135734375,175.83065317800413L40.59725625,161.31681700738577L40.8564140625,138.2878651527258L41.1819890625,122.32202974649576L41.49045,116.67585253715515L41.767424999999996,117.8595423239928L42.027004687499996,42.98440190461966L42.405384375000004,184.1978525570952L42.7501265625,151.67734165604298L43.0786125,158.9261507873352L43.3844578125,139.86633097323087L43.670854687500004,181.45539958029985L43.957139062500005,93.78744800503438L44.3578640625,179.4288892270281L44.55331875,134.55097544651764L44.913951562499996,128.5651772755843L45.1982390625,109.86376377252432L45.4387359375,189.1636057799825L45.769134375,143.99551438024412L46.096875000000004,147.20895810196032L46.506712500000006,142.21114259499768L46.808212499999996,137.88496125202911L47.098842187500004,164.85055022801345L47.484646875,120.15668842654964L47.7728296875,145.20699211038075L47.99784375,119.9218928355437L48.198557812500006,162.86344277170988L48.4818328125,90.49137333264719L48.697678124999996,113.08485780770962L48.888871875,79.53430879574555L49.233051562499995,172.9660055929652L49.513190625,71.29235847638205L49.8268546875,194.94754418874015L50.18968125,72.00958718474095L50.4759796875,110.65039377946118L50.73114375,103.73433072979634L51.009468749999996,174.90875257895544L51.2517234375,168.8611655968886L51.5440828125,146.49221640366775L51.7798265625,189.51727201732308L52.1050640625,168.1322155491664L52.4286703125,83.80207730027345L52.643334375,102.64817534730986L53.031234375000004,92.57956847548485L53.3063953125,142.8353476524353L53.625825,60.021281196520874L53.9223046875,183.04687755325665L54.20214843749999,190.42567345385368L54.42575625,71.09855683950278L54.8337375,175.63428646383375L55.092501562500004,74.01049877588565L55.3530515625,190.5862697514777L55.60959375,96.4719893382146L55.8225421875,-99.45098773791239L56.089603125,2.4266574932978773L56.331984375000005,48.448995283016785L56.586923437500005,65.63905106141019L56.941860937499996,55.53885945907007L57.22081875,-61.92738223534365L57.5102671875,120.74651908416013L57.785484375,88.1027355331641L58.0582265625,171.3742060987995L58.405935937500004,188.89707179023668L58.673249999999996,83.00187720702246L58.971782812499995,81.30411283327985L59.274534375,142.28190090220707L59.517689062500004,98.53562593460083L59.78491875,15.271978263671592L60.0538640625,37.96628800722269L60.30073125,96.37603417038918L60.587184375,135.85598275065422L60.962906249999996,126.08760103583336L61.24843125,130.888707030278L61.65106875,162.2511718250238L62.0130796875,36.41368100276361L62.3725171875,93.89932792920331L62.6107359375,84.07010305386325L62.9299828125,86.06903823522421L63.1535765625,155.2590879224814L63.4678734375,176.57262010643115L63.791803125,167.71080053769623L64.13106093750001,163.2025767232363L64.4913140625,177.49636472417757L64.7922796875,172.39782797029386L65.112553125,106.8726897927431L65.4274265625,141.31585733248636L65.73465,161.5415839736278L66.0542765625,171.35672811132213L66.373171875,-5.818678255264564L66.74338125,38.57296070227255L67.10529375,168.10754825289433L67.42732500000001,183.2718064621664L67.875046875,136.26446598997484L68.2294921875,170.63979491878013L68.5154390625,142.7850153984932L68.78446875,102.45182991027832L69.0271875,184.57157486190016L69.3456609375,32.68233280915481L69.72782343749999,77.40501567721367L70.12257187499999,108.16508211768591L70.4865234375,99.13374994809811L70.8540890625,109.7083082680519L71.1508359375,190.50381374617035L71.5358953125,154.95375625216045L71.82846562499999,190.23522651252836L72.20714062500001,26.088632597373078L72.58435312499999,180.75864657186543L73.0200796875,76.27224917595203L73.403971875,152.38445663108274L73.7652515625,125.128560008911L74.15682187499999,94.28564511812651L74.54174062499999,115.17799870325968L74.8054125,131.9221944018052L75.0749484375,125.24457242626409L75.39765468750001,176.79300871032933L75.70999687499999,112.40463240788534L76.01027343749999,169.61178995668888L76.3320375,127.92571414548615L76.725421875,87.197293983056L77.11891874999999,99.62188533865489L77.43878437500001,154.4695736811711L77.761490625,174.16753744276673L78.15103593750001,156.7236264852377L78.4574015625,95.59107796503946L78.7791796875,186.71082922758967L79.2015609375,135.05485591980127L79.53790781250001,83.40992544706052L79.8138,172.92575633869723L80.1796640625,56.3862475179709L80.49382031249999,95.19444372791509L80.8690078125,170.86274150758982L81.1883953125,136.4299028366804L81.4960265625,128.1572803396445L81.835115625,179.15535742273698L82.1961140625,99.94541132679353L82.5735796875,194.75812741555274L82.914046875,176.684826280062L83.22266250000001,139.94791697997312L83.57142656250001,57.71171870139929L83.87926875000001,56.40899987174915L84.21136874999999,151.28440018456715L84.41294062499999,131.71387229974454L84.71024999999999,155.5812427172294L84.9993046875,155.60949402932937L85.2849703125,109.75508960393759L85.6260984375,146.87309610155913L86.001440625,106.78621950057837L86.3462390625,165.5407569700709L86.75156249999999,117.92922731775502L87.1760671875,12.83929205857791L87.467371875,157.1558739244938L87.774778125,142.51287606473153L88.182815625,154.28019296091335L88.577240625,144.8604962688226L88.8419671875,164.3370359390974L89.132315625,61.893726151723136L89.51619375,147.84185368854267L89.72329218750001,146.90910174869575L90.13509843749999,158.98990655174623L90.46726875,135.54092979201903L90.815990625,144.50263843513451L91.117153125,97.40024943764394L91.467225,175.8298162772105L92.0965359375,181.2863999949052L92.40170625,121.34443505452231L92.7039234375,164.0116186497303L92.938471875,87.21726612402841L93.25755,162.1653493035298L93.5076234375,57.08810940384865L93.76568437499999,116.09420175735767L94.0660734375,149.83752164703148L94.54199062500001,142.10191522080163L95.0389453125,86.13121476310948L95.2379296875,139.62758729091058L95.474334375,96.73565564247278L95.788715625,174.57388114757265L96.17966718749999,161.47449006254857L96.7513359375,144.23932674985664L97.1667421875,103.96544773991292L97.48845,104.0621594282297L97.790146875,127.46185360619654L98.1613125,194.21900077078203L98.464640625,130.59965000702783L98.8141078125,133.27564265865544L99.1177734375,134.0565656641355L99.49865625,176.24194972790207L99.9241734375,179.37167027248785L100.20307500000001,102.34601160654654L100.5362859375,183.1599277200607L100.8290671875,78.43383626295972L101.158565625,168.92844863809074L101.519325,133.62878169577854L101.820740625,155.43461958949382L102.097153125,127.63546087420903L102.37453593750001,174.4018649367186L102.670734375,50.8424086181017L103.00533750000001,97.19085402213611L103.27640625000001,-57.55077880162458L103.5679921875,3.8731814118532077L103.87569375,165.349340736866L104.1503203125,146.02057315982304L104.62978125000001,146.60824773403314L104.92374375,115.01625462220267L105.36210000000001,170.6001697939176L105.7642875,168.187666137058L106.1412328125,33.90384862056146L106.5565125,75.05188705829474L107.1624515625,122.79416472865984L107.465765625,164.02949617459223L107.91700312500001,108.83247503867517L108.415096875,168.24049963687474L108.71440312499999,158.66754371386307L109.3141828125,110.5009242433768L109.88582343750001,87.10310718187918L110.2504359375,191.4620805216523L110.54137499999999,100.71698657595195L111.1377515625,135.4292579109852L111.48679687500001,131.5284018447766L111.8476265625,115.60846831936101L112.1673375,108.6931050511507L112.510378125,171.56505494163588L113.211675,139.0859706298663L113.593078125,162.28979219610875L114.142809375,168.84339445772082L114.6801375,141.515933361191L115.1268046875,57.95287852103894L115.5789421875,0.9897981240199233L116.04796875000001,82.33652689135991L116.437078125,178.1990209565713L116.78895000000001,179.44370047977338L117.11576249999999,34.399142586267914L117.522928125,160.53159129161102L118.00679062500001,172.90868970923697L118.6687546875,139.67511096252844L118.98984375,50.50175689733945L119.6367328125,155.2159047871828L120.447703125,178.99427056885685L120.7464609375,67.18637187893574L121.43919375,73.02222768847759L121.88107968749999,138.0351022000496L122.3545078125,107.75616387908275L122.7416203125,158.048558647816L123.098596875,157.1900828354634L123.50871562500001,180.3992402352966L123.9354421875,146.92609509023336L124.2129515625,141.5966162715967L124.7891625,87.00368147629956L125.3207671875,174.67378677083894L125.68137187500001,133.169313703592L126.05191875,170.6627931417181L126.6369890625,136.82480653318075L127.045546875,116.17226521556194L127.4826234375,150.68266378572355L127.83286406250001,151.08834789922605L128.2050421875,16.96418221180255L128.7521296875,93.77546661175215L129.21937031250002,73.0512591623343L129.6201234375,119.6181120322301L129.98683125,135.3039402915881L130.45995,132.05994259852628L130.8259265625,151.5727857958812L131.5768359375,172.04527050829853L132.154565625,64.63785293010565L132.56550000000001,161.89976332852473L133.1209265625,79.11898850248411L133.3690453125,45.76756514035739L133.884590625,-39.302086073618675L134.5454859375,127.72600692052106L134.961440625,123.98179315030575L135.5140828125,151.93452552534066L135.8553796875,112.87273891843283L136.3010484375,157.1370885750422L136.7502046875,152.48301706635036L137.2174875,113.20413271968181L137.7329765625,32.54228195318808L138.220003125,180.90767874454076L138.649725,156.87328515144495L139.1764921875,101.1069445197399L139.5263953125,119.00130196259573L139.9178390625,176.63116770008435L140.39595,158.0620010712972L140.78411718750002,85.13267391003096L141.310603125,181.7851881396312L141.8267671875,179.49687204968473L142.24417031250002,104.0312744791691L142.70000625,175.92200775559132L143.309221875,155.72831502900675L143.731884375,112.31383103590747L144.1074375,42.01573415444448L144.45399375000002,28.035519168927124L144.9372234375,167.2659050214749L145.42606406250002,128.08767572618447L145.78728750000002,182.65615363247122L146.062040625,121.21380287867328L146.39103281250001,93.61831839268024L146.91000937500002,-682.4256973083202L147.2096390625,-187.4583971500396L147.53428593750002,63.21344777941704L148.146328125,50.13355837418484L148.619559375,176.24091187635292L149.50830937499998,102.18085372677217L150.3205453125,156.43693358852312L150.81128437499999,147.72115557239607L151.26156562499997,13.979141482940092L151.922475,22.636497204120353L152.4612234375,127.0383818046405L153.0839109375,-119.46566407497113L153.6544828125,179.41282735134547L153.99202499999998,120.65571771218225L154.881421875,33.40683357073711L155.6214609375,90.42799582848181L156.5955,140.05085104933153L157.2378328125,117.43478443760137L157.64051250000003,64.67488460815869L158.192353125,84.2137662951763L159.22919531250002,97.80053388613919L159.958321875,-23.278187719675206L160.381096875,86.0156562580512L161.086725,-32.26041225286629L161.6182734375,126.97852684901312L162.30352499999998,82.77231106391321L163.30561875,137.28584430538692L163.9805484375,172.93552490954215L165.229284375,41.914265843538146L165.6993515625,92.29180699357619L166.4976375,-9.573629888204433L167.0251078125,184.76403722109706L167.5186734375,132.03278351288574L168.85528593749999,157.04187574294897L169.81211249999998,178.98134825321347L170.76605625,173.82715286830296L171.17188593749998,129.23266476163496L172.0602703125,53.05626181455759L172.689778125,165.52326479783426L173.4701625,159.4636964224852L174.7392046875,123.10667388714276L175.128159375,131.36726298011266L175.9919625,125.38695903924796L176.48341875,115.92228247569159L177.0144890625,74.78109054840527L177.5911359375,152.19648965849325L178.7130140625,31.2290569452139L179.22504375,170.82127709228257L179.893153125,42.85857363389089L180.55417500000001,11.00297095683905L181.273809375,81.85485975100445L181.8703546875,123.83174676734666L182.4478875,137.81536136682217L183.16357031249998,102.42174876423982L184.05255937500002,150.49311284835522L184.9754390625,123.55866651122386L185.392603125,110.79769777563902L185.88442500000002,171.77270563176046L186.6272765625,56.109058409929276L187.242159375,61.746327590483894L187.91887499999999,36.9729766020408L188.78975156250002,89.79549741515746L189.9172828125,125.56860906573442L190.63783125,72.44678983321558L191.2154484375,54.5695486664772L191.5851375,117.06026896834373L192.355425,62.36044255586771L192.91221562500002,164.66390007390424L194.7465421875,170.58077686394637L195.3774984375,122.04398009639522L196.4496515625,139.83894020318985L197.4252515625,183.83494376706392L198.2090109375,129.52152319825612L198.67515468750003,73.6995688539285L199.0958765625,-24.13925934296389L199.90812656249997,107.42407029637923L200.93242500000002,4.9044512326900875L201.93225468749998,120.10528285916035L202.7607609375,143.9069116459443L203.32297968749998,162.70149064751772L203.9813859375,8.893148784454063L204.830803125,-249.99457487693192L205.6772671875,56.44674078776287L206.92034999999998,51.34335757448124L207.77089218749998,162.7739984083634L208.813359375,102.96128972218588L210.3171890625,-29.853977308823517L210.974146875,77.21549783761685L211.5696515625,56.512822852684906L212.43134531249999,165.20836550742388L213.2357484375,138.89322812167498L215.0100421875,50.18816024065018L216.891815625,176.90115095044558L217.51486875,80.73771539788979L218.70182812500002,6.112614457423882L219.338184375,180.42195712717682L220.127203125,116.97411074088171L220.6793953125,122.30075260767569L222.5840203125,-49.63027403904841L223.26707812499998,150.2389172349985L224.354475,29.01392712042883L225.3946359375,31.446083761178528L226.5701625,-57.50088627521808L227.211440625,7.567384449335258L227.8716046875,-23.815184877468994L228.8108390625,75.02404710421195L229.8223125,-70.04743819053357L230.80186406250002,78.45670209481167L231.858928125,119.4176341020144L232.326815625,71.9672693197544L233.2300078125,151.481298827208L234.1862578125,-36.201430100661064L234.6138421875,91.64809316396713L235.8017578125,71.99139286692326L236.7788484375,152.1866596203584L237.463228125,100.62932476401329L238.4412046875,-187.1538976522592L238.97694375,34.719018363035644L239.3418375,125.5355207507427L239.9183296875,114.30300710292963L240.5321296875,109.37162827986936L241.474865625,-109.1136457140629L242.3683125,-58.26440458114331L243.10996875,72.9375541324799L243.68481562500003,133.0602565465065L244.2152953125,91.08145931592355L244.755309375,144.93570859042498L245.73560625000002,76.34502644722278L246.6496265625,121.9142273756174L247.50532968750002,-168.68435767980716L248.30919843750002,105.29731152149347L249.87816562499998,-5.5280230824764045L251.132203125,20.321090588202846L252.2522390625,50.500631573108535L253.127475,62.68986940383911L253.8331171875,52.66328724531027L254.464115625,162.4779293858088L255.39359062499997,-11.239412358173935L256.9649625,132.71104195943246L258.06195,43.46299568047891L258.8047875,105.75457141949579L259.5081515625,34.83414186881139L259.8886828125,41.05188922240185L261.1034015625,12.04271380717938L261.93431250000003,58.30290163938815L262.5754921875,57.90544468622942L263.3805984375,164.15723465956174L264.15219375,61.080012711194854L265.1138859375,58.40884287769978L265.92165,118.5625768166322" style="fill: none;" fill="none"></path></g></g></g></g></g></g><g transform="translate(51, 165)" clip-path="url(#clip_1)"><clipPath id="clip_1"><rect width="278" height="35"></rect></clipPath><g><g visibility="inherit"><g><g transform="translate(12.65625,0)" style="visibility: hidden;"><text transform="translate(0,14)" style="text-anchor: middle; font-family: Roboto, sans-serif; font-size: 12px; font-weight: 200;" fill="rgb(255, 255, 255)" stroke="none" stroke-width="1px">02 AM</text></g><g transform="translate(50.625,0)" style="visibility: inherit;"><text transform="translate(0,14)" style="text-anchor: middle; font-family: Roboto, sans-serif; font-size: 12px; font-weight: 200;" fill="rgb(255, 255, 255)" stroke="none" stroke-width="1px">03 AM</text></g><g transform="translate(101.25,0)" style="visibility: inherit;"><text transform="translate(0,14)" style="text-anchor: middle; font-family: Roboto, sans-serif; font-size: 12px; font-weight: 200;" fill="rgb(255, 255, 255)" stroke="none" stroke-width="1px">04 AM</text></g><g transform="translate(151.875,0)" style="visibility: inherit;"><text transform="translate(0,14)" style="text-anchor: middle; font-family: Roboto, sans-serif; font-size: 12px; font-weight: 200;" fill="rgb(255, 255, 255)" stroke="none" stroke-width="1px">05 AM</text></g><g transform="translate(202.5,0)" style="visibility: inherit;"><text transform="translate(0,14)" style="text-anchor: middle; font-family: Roboto, sans-serif; font-size: 12px; font-weight: 200;" fill="rgb(255, 255, 255)" stroke="none" stroke-width="1px">06 AM</text></g><g transform="translate(253.125,0)" style="visibility: inherit;"><text transform="translate(0,14)" style="text-anchor: middle; font-family: Roboto, sans-serif; font-size: 12px; font-weight: 200;" fill="rgb(255, 255, 255)" stroke="none" stroke-width="1px">07 AM</text></g></g><g><line x1="0" y1="0" x2="0" y2="17" fill="rgb(0, 0, 0)" stroke="rgb(204, 204, 204)" stroke-width="1px"></line><line x1="25.3125" y1="0" x2="25.3125" y2="17" fill="rgb(0, 0, 0)" stroke="rgb(204, 204, 204)" stroke-width="1px"></line><line x1="75.9375" y1="0" x2="75.9375" y2="17" fill="rgb(0, 0, 0)" stroke="rgb(204, 204, 204)" stroke-width="1px"></line><line x1="126.5625" y1="0" x2="126.5625" y2="17" fill="rgb(0, 0, 0)" stroke="rgb(204, 204, 204)" stroke-width="1px"></line><line x1="177.1875" y1="0" x2="177.1875" y2="17" fill="rgb(0, 0, 0)" stroke="rgb(204, 204, 204)" stroke-width="1px"></line><line x1="227.8125" y1="0" x2="227.8125" y2="17" fill="rgb(0, 0, 0)" stroke="rgb(204, 204, 204)" stroke-width="1px"></line><line x1="278.4375" y1="0" x2="278.4375" y2="17" fill="rgb(0, 0, 0)" stroke="rgb(204, 204, 204)" stroke-width="1px"></line></g><line x1="0" y1="0" x2="278.4375" y2="0" style="visibility: inherit;" fill="rgb(0, 0, 0)" stroke="rgb(204, 204, 204)" stroke-width="1px"></line></g><g visibility="inherit"><g><g transform="translate(139.21875,0)" style="visibility: inherit;"><text transform="translate(0,31)" style="text-anchor: middle; font-family: Roboto, sans-serif; font-size: 12px; font-weight: 200;" fill="rgb(255, 255, 255)" stroke="none" stroke-width="1px">September 21, 2024</text></g></g><g><line x1="0" y1="17" x2="0" y2="34" fill="rgb(0, 0, 0)" stroke="rgb(204, 204, 204)" stroke-width="1px"></line><line x1="278.4375" y1="17" x2="278.4375" y2="34" fill="rgb(0, 0, 0)" stroke="rgb(204, 204, 204)" stroke-width="1px"></line></g><line x1="0" y1="17" x2="278.4375" y2="17" style="visibility: inherit;" fill="rgb(0, 0, 0)" stroke="rgb(204, 204, 204)" stroke-width="1px"></line></g></g></g></g></g></svg>